RobotoDelta-opszmax-wdthmin.ufo
<glyph name="quotedbl" format="1">
  <advance width="612"/>
  <unicode hex="0022"/>
  <outline>
    <contour>
      <point x="108" y="1122" type="line"/>
      <point x="197" y="1122" type="line"/>
      <point x="207" y="1363" type="line"/>
      <point x="207" y="1456" type="line"/>
      <point x="100" y="1456" type="line"/>
      <point x="100" y="1363" type="line"/>
    </contour>
    <contour>
      <point x="415" y="1122" type="line"/>
      <point x="503" y="1122" type="line"/>
      <point x="512" y="1363" type="line"/>
      <point x="512" y="1456" type="line"/>
      <point x="407" y="1456" type="line"/>
      <point x="407" y="1363" type="line"/>
    </contour>
  </outline>
</glyph>
<glyph name="percent" format="1">
  <advance width="1227"/>
  <unicode hex="0025"/>
  <outline>
    <contour>
      <point x="70" y="945" type="line" smooth="yes"/>
      <point x="70" y="809"/>
      <point x="170" y="660"/>
      <point x="260" y="660" type="qcurve" smooth="yes"/>
      <point x="352" y="660"/>
      <point x="452" y="809"/>
      <point x="452" y="945" type="qcurve" smooth="yes"/>
      <point x="452" y="1191" type="line" smooth="yes"/>
      <point x="452" y="1327"/>
      <point x="352" y="1476"/>
      <point x="260" y="1476" type="qcurve" smooth="yes"/>
      <point x="170" y="1476"/>
      <point x="70" y="1327"/>
      <point x="70" y="1191" type="qcurve" smooth="yes"/>
    </contour>
    <contour>
      <point x="155" y="936" type="qcurve" smooth="yes"/>
      <point x="155" y="1200" type="line" smooth="yes"/>
      <point x="155" y="1293.65625"/>
      <point x="207.0" y="1403.0"/>
      <point x="260" y="1403" type="qcurve" smooth="yes"/>
      <point x="316.0" y="1403.0"/>
      <point x="367" y="1293.65625"/>
      <point x="367" y="1200" type="qcurve" smooth="yes"/>
      <point x="367" y="936" type="line" smooth="yes"/>
      <point x="367" y="842.34375"/>
      <point x="316.0" y="733.0"/>
      <point x="260" y="733" type="qcurve" smooth="yes"/>
      <point x="207.0" y="733.0"/>
      <point x="155" y="842.34375"/>
    </contour>
    <contour>
      <point x="200" y="36" type="line"/>
      <point x="266" y="-2" type="line"/>
      <point x="1033" y="1428" type="line"/>
      <point x="961" y="1458" type="line"/>
    </contour>
    <contour>
      <point x="775" y="264" type="line" smooth="yes"/>
      <point x="775" y="121"/>
      <point x="873" y="-21"/>
      <point x="965" y="-21" type="qcurve" smooth="yes"/>
      <point x="1060" y="-21"/>
      <point x="1157" y="132"/>
      <point x="1157" y="268" type="qcurve" smooth="yes"/>
      <point x="1157" y="510" type="line" smooth="yes"/>
      <point x="1157" y="644"/>
      <point x="1060" y="795"/>
      <point x="965" y="795" type="qcurve" smooth="yes"/>
      <point x="873" y="795"/>
      <point x="775" y="644"/>
      <point x="775" y="510" type="qcurve" smooth="yes"/>
    </contour>
    <contour>
      <point x="860" y="255" type="qcurve" smooth="yes"/>
      <point x="860" y="519" type="line" smooth="yes"/>
      <point x="860" y="612.65625"/>
      <point x="910.0" y="722.0"/>
      <point x="965" y="722" type="qcurve" smooth="yes"/>
      <point x="1022.0" y="722.0"/>
      <point x="1072" y="610.6718146718147"/>
      <point x="1072" y="516" type="qcurve" smooth="yes"/>
      <point x="1072" y="255" type="line" smooth="yes"/>
      <point x="1072" y="161.34375"/>
      <point x="1022.0" y="52.0"/>
      <point x="965" y="52" type="qcurve" smooth="yes"/>
      <point x="910.0" y="52.0"/>
      <point x="860" y="152.765625"/>
    </contour>
  </outline>
</glyph>
<glyph name="ampersand" format="1">
  <advance width="905"/>
  <unicode hex="0026"/>
  <outline>
    <contour>
      <point x="80" y="380" type="qcurve" smooth="yes"/>
      <point x="80" y="210"/>
      <point x="241" y="-20"/>
      <point x="386" y="-20" type="qcurve" smooth="yes"/>
      <point x="576" y="-20"/>
      <point x="834" y="380"/>
      <point x="834" y="674" type="qcurve"/>
      <point x="733" y="674" type="line"/>
      <point x="733.0" y="398.51851851851853"/>
      <point x="527.0" y="72.0"/>
      <point x="386" y="72" type="qcurve" smooth="yes"/>
      <point x="293.0" y="72.0"/>
      <point x="183.0" y="248.8571428571429"/>
      <point x="183" y="382" type="qcurve" smooth="yes"/>
      <point x="183.0" y="491.4133333333333"/>
      <point x="268" y="662"/>
      <point x="369" y="751" type="qcurve" smooth="yes"/>
      <point x="481" y="849" type="line" smooth="yes"/>
      <point x="551" y="911"/>
      <point x="632.0" y="1071.3644859813085"/>
      <point x="632" y="1173" type="qcurve" smooth="yes"/>
      <point x="632" y="1323"/>
      <point x="515" y="1486"/>
      <point x="412" y="1486" type="qcurve" smooth="yes"/>
      <point x="310" y="1486"/>
      <point x="189" y="1312"/>
      <point x="189" y="1153" type="qcurve" smooth="yes"/>
      <point x="189.0" y="1060.578125"/>
      <point x="230.42939456696786" y="910.9423897001885"/>
      <point x="320" y="764" type="qcurve" smooth="yes"/>
      <point x="775" y="0" type="line"/>
      <point x="881" y="0" type="line"/>
      <point x="400" y="817" type="line" smooth="yes"/>
      <point x="325.8446507988568" y="940.6916363490263"/>
      <point x="291.0" y="1077.0"/>
      <point x="291" y="1153" type="qcurve" smooth="yes"/>
      <point x="291.0" y="1264.1807692307693"/>
      <point x="355.0" y="1394.0"/>
      <point x="412" y="1394" type="qcurve" smooth="yes"/>
      <point x="474.0" y="1394.0"/>
      <point x="530.0" y="1274.265560165975"/>
      <point x="530" y="1172" type="qcurve" smooth="yes"/>
      <point x="530.0" y="1082.6743295019157"/>
      <point x="477.89867528474974" y="963.7893988874047"/>
      <point x="423" y="916" type="qcurve" smooth="yes"/>
      <point x="317" y="821" type="line" smooth="yes"/>
      <point x="199.42681694536964" y="719.1779130002137"/>
      <point x="80.0" y="524.6545454545454"/>
    </contour>
  </outline>
</glyph>
<glyph name="quotesingle" format="1">
  <advance width="318"/>
  <unicode hex="0027"/>
  <outline>
    <contour>
      <point x="115" y="1122" type="line"/>
      <point x="203" y="1122" type="line"/>
      <point x="218" y="1363" type="line"/>
      <point x="218" y="1456" type="line"/>
      <point x="100" y="1456" type="line"/>
      <point x="100" y="1363" type="line"/>
    </contour>
  </outline>
</glyph>
<glyph name="period" format="1">
  <advance width="478"/>
  <unicode hex="002E"/>
  <outline>
    <contour>
      <point x="163" y="65" type="qcurve" smooth="yes"/>
      <point x="163" y="30"/>
      <point x="203" y="-19"/>
      <point x="239" y="-19" type="qcurve" smooth="yes"/>
      <point x="276" y="-19"/>
      <point x="315" y="29"/>
      <point x="315" y="64" type="qcurve" smooth="yes"/>
      <point x="315" y="100"/>
      <point x="276" y="148"/>
      <point x="240" y="148" type="qcurve" smooth="yes"/>
      <point x="203" y="148"/>
      <point x="163" y="100"/>
    </contour>
  </outline>
</glyph>
<glyph name="slash" format="1">
  <advance width="372"/>
  <unicode hex="002F"/>
  <outline>
    <contour>
      <point x="-100" y="-125" type="line"/>
      <point x="-14" y="-125" type="line"/>
      <point x="472" y="1456" type="line"/>
      <point x="385" y="1456" type="line"/>
    </contour>
  </outline>
</glyph>
<glyph name="one" format="2">
  <advance width="588"/>
  <unicode hex="0031"/>
  <outline>
    <contour>
      <point x="295" y="0" type="line"/>
      <point x="399" y="0" type="line"/>
      <point x="399" y="1476" type="line"/>
      <point x="344" y="1476" type="line"/>
      <point x="19" y="1349" type="line"/>
      <point x="19" y="1253" type="line"/>
      <point x="295" y="1349" type="line"/>
    </contour>
  </outline>
</glyph>
<glyph name="two" format="2">
  <advance width="588"/>
  <unicode hex="0032"/>
  <outline>
    <contour>
      <point x="42" y="0" type="line"/>
      <point x="528" y="0" type="line"/>
      <point x="528" y="91" type="line"/>
      <point x="155" y="91" type="line"/>
      <point x="407" y="706" type="line" smooth="yes"/>
      <point x="481" y="888"/>
      <point x="520" y="1050"/>
      <point x="520.0" y="1190" type="qcurve" smooth="yes"/>
      <point x="520.0" y="1331"/>
      <point x="402" y="1476"/>
      <point x="291.0" y="1476" type="qcurve" smooth="yes"/>
      <point x="180.0" y="1476.0"/>
      <point x="44.0" y="1329"/>
      <point x="44.0" y="1165" type="qcurve" smooth="yes"/>
      <point x="44" y="1055" type="line"/>
      <point x="147" y="1055" type="line"/>
      <point x="147.0" y="1188" type="line" smooth="yes"/>
      <point x="147" y="1295"/>
      <point x="226.0" y="1385.0"/>
      <point x="288.0" y="1385" type="qcurve" smooth="yes"/>
      <point x="350" y="1385"/>
      <point x="417.0" y="1298"/>
      <point x="417.0" y="1169" type="qcurve" smooth="yes"/>
      <point x="417" y="1044"/>
      <point x="358" y="851"/>
      <point x="313" y="740" type="qcurve" smooth="yes"/>
      <point x="42" y="80" type="line"/>
    </contour>
  </outline>
</glyph>
<glyph name="three" format="2">
  <advance width="715"/>
  <unicode hex="0033"/>
  <outline>
    <contour>
      <point x="41" y="375" type="line" smooth="yes"/>
      <point x="41" y="193"/>
      <point x="205" y="-20"/>
      <point x="356" y="-20" type="qcurve" smooth="yes"/>
      <point x="511" y="-20"/>
      <point x="671" y="201"/>
      <point x="671" y="388" type="qcurve" smooth="yes"/>
      <point x="671" y="554"/>
      <point x="539" y="739"/>
      <point x="448" y="763" type="qcurve"/>
      <point x="448" y="767" type="line"/>
      <point x="533" y="800"/>
      <point x="628" y="966"/>
      <point x="628" y="1114" type="qcurve" smooth="yes"/>
      <point x="628" y="1291"/>
      <point x="478" y="1476"/>
      <point x="356" y="1476" type="qcurve" smooth="yes"/>
      <point x="234" y="1476"/>
      <point x="73" y="1286"/>
      <point x="73" y="1105" type="qcurve" smooth="yes"/>
      <point x="73" y="1085" type="line"/>
      <point x="175" y="1085" type="line"/>
      <point x="175" y="1105" type="line" smooth="yes"/>
      <point x="175" y="1262.8978873239437"/>
      <point x="279.0" y="1385.0"/>
      <point x="356" y="1385" type="qcurve" smooth="yes"/>
      <point x="442.0" y="1385.0"/>
      <point x="525.0" y="1246.5"/>
      <point x="525" y="1110" type="qcurve" smooth="yes"/>
      <point x="525.0" y="940.7597402597403"/>
      <point x="406.0" y="804"/>
      <point x="316" y="804" type="qcurve" smooth="yes"/>
      <point x="210" y="804" type="line"/>
      <point x="210" y="713" type="line"/>
      <point x="323" y="713" type="line" smooth="yes"/>
      <point x="427.0" y="713"/>
      <point x="568.0" y="556.4307692307692"/>
      <point x="568" y="391" type="qcurve" smooth="yes"/>
      <point x="568.0" y="227.63496932515335"/>
      <point x="464.0" y="71.0"/>
      <point x="356" y="71" type="qcurve" smooth="yes"/>
      <point x="259.0" y="71.0"/>
      <point x="142" y="224.46451612903226"/>
      <point x="142" y="375" type="qcurve" smooth="yes"/>
      <point x="142" y="395" type="line"/>
      <point x="41" y="395" type="line"/>
    </contour>
  </outline>
</glyph>
<glyph name="four" format="2">
  <advance width="715"/>
  <unicode hex="0034"/>
  <outline>
    <contour>
      <point x="429" y="0" type="line"/>
      <point x="533" y="0" type="line"/>
      <point x="533" y="1456" type="line"/>
      <point x="457" y="1456" type="line"/>
      <point x="15" y="450" type="line"/>
      <point x="15" y="351" type="line"/>
      <point x="701" y="351" type="line"/>
      <point x="701" y="441" type="line"/>
      <point x="486" y="441" type="line"/>
      <point x="474" y="441" type="line"/>
      <point x="104" y="441" type="line"/>
      <point x="421" y="1165" type="line"/>
      <point x="429" y="1165" type="line"/>
      <point x="429" y="403" type="line"/>
      <point x="429" y="391" type="line"/>
    </contour>
  </outline>
</glyph>
<glyph name="five" format="2">
  <advance width="588"/>
  <unicode hex="0035"/>
  <outline>
    <contour>
      <point x="39" y="290" type="line" smooth="yes"/>
      <point x="39" y="146"/>
      <point x="191" y="-10"/>
      <point x="304" y="-10.0" type="qcurve" smooth="yes"/>
      <point x="417.0" y="-10.0"/>
      <point x="558" y="221"/>
      <point x="558" y="475" type="qcurve" smooth="yes"/>
      <point x="558" y="727"/>
      <point x="422" y="911"/>
      <point x="324" y="911" type="qcurve" smooth="yes"/>
      <point x="271" y="911"/>
      <point x="180" y="867"/>
      <point x="162" y="839" type="qcurve"/>
      <point x="179" y="1359" type="line"/>
      <point x="490" y="1359" type="line"/>
      <point x="490" y="1456" type="line"/>
      <point x="99" y="1456" type="line"/>
      <point x="71" y="717" type="line"/>
      <point x="145" y="698" type="line"/>
      <point x="160" y="748"/>
      <point x="248" y="823"/>
      <point x="304" y="823.0" type="qcurve" smooth="yes"/>
      <point x="363" y="823"/>
      <point x="454" y="694"/>
      <point x="454" y="475" type="qcurve" smooth="yes"/>
      <point x="454.0" y="253"/>
      <point x="375" y="81"/>
      <point x="303" y="81" type="qcurve" smooth="yes"/>
      <point x="221" y="81"/>
      <point x="139" y="179"/>
      <point x="139" y="310" type="qcurve" smooth="yes"/>
      <point x="139" y="420" type="line"/>
      <point x="39" y="420" type="line"/>
    </contour>
  </outline>
</glyph>
<glyph name="six" format="1">
  <advance width="950"/>
  <unicode hex="0036"/>
  <outline>
    <contour>
      <point x="151" y="614" type="line" smooth="yes"/>
      <point x="151" y="277"/>
      <point x="324" y="-20"/>
      <point x="473" y="-20" type="qcurve" smooth="yes"/>
      <point x="630" y="-20"/>
      <point x="809" y="235"/>
      <point x="809" y="455" type="qcurve" smooth="yes"/>
      <point x="809" y="666"/>
      <point x="648" y="900"/>
      <point x="500" y="900" type="qcurve" smooth="yes"/>
      <point x="375" y="900"/>
      <point x="190" y="664"/>
      <point x="190" y="465" type="qcurve"/>
      <point x="253" y="465" type="line"/>
      <point x="253" y="620"/>
      <point x="390" y="812"/>
      <point x="487" y="812" type="qcurve" smooth="yes"/>
      <point x="590" y="812"/>
      <point x="705" y="635"/>
      <point x="705" y="455" type="qcurve" smooth="yes"/>
      <point x="705" y="259"/>
      <point x="582" y="70"/>
      <point x="478" y="70" type="qcurve" smooth="yes"/>
      <point x="380" y="70"/>
      <point x="252" y="319"/>
      <point x="252" y="614" type="qcurve" smooth="yes"/>
      <point x="252" y="634" type="line" smooth="yes"/>
      <point x="252" y="1006"/>
      <point x="474" y="1385"/>
      <point x="663" y="1385" type="qcurve" smooth="yes"/>
      <point x="679" y="1385" type="line"/>
      <point x="679" y="1476" type="line"/>
      <point x="663" y="1476" type="line" smooth="yes"/>
      <point x="432" y="1476"/>
      <point x="151" y="1038"/>
      <point x="151" y="644" type="qcurve" smooth="yes"/>
    </contour>
  </outline>
</glyph>
<glyph name="seven" format="1">
  <advance width="950"/>
  <unicode hex="0037"/>
  <outline>
    <contour>
      <point x="272" y="0" type="line"/>
      <point x="382" y="0" type="line"/>
      <point x="792" y="1374" type="line"/>
      <point x="792" y="1456" type="line"/>
      <point x="123" y="1456" type="line"/>
      <point x="123" y="1364" type="line"/>
      <point x="684" y="1364" type="line"/>
    </contour>
  </outline>
</glyph>
<glyph name="eight" format="1">
  <advance width="950"/>
  <unicode hex="0038"/>
  <outline>
    <contour>
      <point x="162" y="377" type="qcurve" smooth="yes"/>
      <point x="162" y="183"/>
      <point x="339" y="-20"/>
      <point x="476" y="-20" type="qcurve" smooth="yes"/>
      <point x="611" y="-20"/>
      <point x="788" y="183"/>
      <point x="788" y="377" type="qcurve" smooth="yes"/>
      <point x="788" y="528"/>
      <point x="684" y="716"/>
      <point x="594" y="746" type="qcurve"/>
      <point x="594" y="750" type="line"/>
      <point x="664" y="784"/>
      <point x="751" y="959"/>
      <point x="751" y="1096" type="qcurve" smooth="yes"/>
      <point x="751" y="1272"/>
      <point x="607" y="1476"/>
      <point x="476" y="1476" type="qcurve" smooth="yes"/>
      <point x="344" y="1476"/>
      <point x="199" y="1282"/>
      <point x="199" y="1096" type="qcurve" smooth="yes"/>
      <point x="199" y="967"/>
      <point x="278" y="786"/>
      <point x="356" y="747" type="qcurve"/>
      <point x="356" y="743" type="line"/>
      <point x="267" y="713"/>
      <point x="162" y="524"/>
    </contour>
    <contour>
      <point x="266" y="379" type="qcurve" smooth="yes"/>
      <point x="266" y="524"/>
      <point x="374" y="700"/>
      <point x="475" y="700" type="qcurve" smooth="yes"/>
      <point x="575" y="700"/>
      <point x="682" y="524"/>
      <point x="682" y="378" type="qcurve" smooth="yes"/>
      <point x="682" y="232"/>
      <point x="575" y="69"/>
      <point x="475" y="69" type="qcurve" smooth="yes"/>
      <point x="374" y="69"/>
      <point x="266" y="231"/>
    </contour>
    <contour>
      <point x="300" y="1095" type="qcurve" smooth="yes"/>
      <point x="300" y="1240"/>
      <point x="381" y="1387"/>
      <point x="475" y="1387" type="qcurve" smooth="yes"/>
      <point x="567" y="1387"/>
      <point x="650" y="1232"/>
      <point x="650" y="1095" type="qcurve" smooth="yes"/>
      <point x="650" y="960"/>
      <point x="559" y="790"/>
      <point x="475" y="790" type="qcurve" smooth="yes"/>
      <point x="390" y="790"/>
      <point x="300" y="960"/>
    </contour>
  </outline>
</glyph>
<glyph name="nine" format="1">
  <advance width="950"/>
  <unicode hex="0039"/>
  <outline>
    <contour>
      <point x="143" y="1001" type="qcurve" smooth="yes"/>
      <point x="143" y="801"/>
      <point x="311" y="556"/>
      <point x="450" y="556" type="qcurve" smooth="yes"/>
      <point x="577" y="556"/>
      <point x="754" y="806"/>
      <point x="754" y="1001" type="qcurve"/>
      <point x="689" y="1001" type="line"/>
      <point x="689" y="849"/>
      <point x="558" y="643"/>
      <point x="461" y="643" type="qcurve" smooth="yes"/>
      <point x="360" y="643"/>
      <point x="247" y="826"/>
      <point x="247" y="1001" type="qcurve" smooth="yes"/>
      <point x="247" y="1193"/>
      <point x="360" y="1386"/>
      <point x="461" y="1386" type="qcurve" smooth="yes"/>
      <point x="565" y="1386"/>
      <point x="692" y="1155"/>
      <point x="692" y="852" type="qcurve" smooth="yes"/>
      <point x="692" y="802" type="line" smooth="yes"/>
      <point x="692" y="450"/>
      <point x="465" y="71"/>
      <point x="279" y="71" type="qcurve" smooth="yes"/>
      <point x="263" y="71" type="line"/>
      <point x="263" y="-20" type="line"/>
      <point x="279" y="-20" type="line" smooth="yes"/>
      <point x="520" y="-20"/>
      <point x="796" y="427"/>
      <point x="796" y="812" type="qcurve" smooth="yes"/>
      <point x="796" y="842" type="line" smooth="yes"/>
      <point x="796" y="1182"/>
      <point x="604" y="1476"/>
      <point x="461" y="1476" type="qcurve" smooth="yes"/>
      <point x="321" y="1476"/>
      <point x="143" y="1217"/>
    </contour>
  </outline>
</glyph>
<glyph name="colon" format="1">
  <advance width="508"/>
  <unicode hex="003A"/>
  <outline>
    <contour>
      <point x="179" y="64" type="qcurve" smooth="yes"/>
      <point x="179" y="29"/>
      <point x="217" y="-19"/>
      <point x="254" y="-19" type="qcurve" smooth="yes"/>
      <point x="291" y="-19"/>
      <point x="329" y="30"/>
      <point x="329" y="64" type="qcurve" smooth="yes"/>
      <point x="329" y="98"/>
      <point x="290" y="147"/>
      <point x="253" y="147" type="qcurve" smooth="yes"/>
      <point x="217" y="147"/>
      <point x="179" y="98"/>
    </contour>
    <contour>
      <point x="179" y="846" type="qcurve" smooth="yes"/>
      <point x="179" y="812"/>
      <point x="217" y="764"/>
      <point x="254" y="764" type="qcurve" smooth="yes"/>
      <point x="291" y="764"/>
      <point x="329" y="813"/>
      <point x="329" y="847" type="qcurve" smooth="yes"/>
      <point x="329" y="881"/>
      <point x="290" y="929"/>
      <point x="253" y="929" type="qcurve" smooth="yes"/>
      <point x="217" y="929"/>
      <point x="179" y="881"/>
    </contour>
  </outline>
</glyph>
<glyph name="less" format="1">
  <advance width="1037"/>
  <unicode hex="003C"/>
  <outline>
    <contour>
      <point x="864" y="247" type="line"/>
      <point x="864" y="335" type="line"/>
      <point x="255" y="674" type="line"/>
      <point x="864" y="1013" type="line"/>
      <point x="864" y="1101" type="line"/>
      <point x="165" y="714" type="line"/>
      <point x="165" y="634" type="line"/>
    </contour>
  </outline>
</glyph>
<glyph name="greater" format="1">
  <advance width="1037"/>
  <unicode hex="003E"/>
  <outline>
    <contour>
      <point x="173" y="247" type="line"/>
      <point x="872" y="634" type="line"/>
      <point x="872" y="714" type="line"/>
      <point x="173" y="1101" type="line"/>
      <point x="173" y="1013" type="line"/>
      <point x="782" y="674" type="line"/>
      <point x="173" y="335" type="line"/>
    </contour>
  </outline>
</glyph>
<glyph name="A" format="1">
  <advance width="817"/>
  <unicode hex="0041"/>
  <outline>
    <contour>
      <point x="-10" y="0" type="line"/>
      <point x="86" y="0" type="line"/>
      <point x="368" y="1252" type="line" smooth="yes"/>
      <point x="380" y="1305"/>
      <point x="392" y="1357"/>
      <point x="402" y="1410" type="qcurve"/>
      <point x="405" y="1410" type="line"/>
      <point x="415" y="1357"/>
      <point x="426" y="1305"/>
      <point x="438" y="1252" type="qcurve" smooth="yes"/>
      <point x="728" y="0" type="line"/>
      <point x="827" y="0" type="line"/>
      <point x="485" y="1455" type="line"/>
      <point x="322" y="1455" type="line"/>
    </contour>
    <contour>
      <point x="144" y="420" type="line"/>
      <point x="671" y="420" type="line"/>
      <point x="656" y="508" type="line"/>
      <point x="158" y="508" type="line"/>
    </contour>
  </outline>
</glyph>
<glyph name="B" format="1">
  <advance width="830"/>
  <unicode hex="0042"/>
  <outline>
    <contour>
      <point x="130" y="0" type="line"/>
      <point x="459" y="0" type="line" smooth="yes"/>
      <point x="613" y="0"/>
      <point x="790" y="207"/>
      <point x="790" y="393" type="qcurve" smooth="yes"/>
      <point x="790" y="545"/>
      <point x="685" y="739"/>
      <point x="595" y="763" type="qcurve"/>
      <point x="595" y="767" type="line"/>
      <point x="664" y="788"/>
      <point x="750" y="963"/>
      <point x="750" y="1092" type="qcurve" smooth="yes"/>
      <point x="750" y="1279"/>
      <point x="580" y="1456"/>
      <point x="427" y="1456" type="qcurve" smooth="yes"/>
      <point x="130" y="1456" type="line"/>
    </contour>
    <contour>
      <point x="232" y="86" type="line"/>
      <point x="232" y="714" type="line"/>
      <point x="459" y="714" type="line" smooth="yes"/>
      <point x="577" y="714"/>
      <point x="689" y="541"/>
      <point x="689" y="397" type="qcurve" smooth="yes"/>
      <point x="689" y="255"/>
      <point x="577" y="86"/>
      <point x="459" y="86" type="qcurve" smooth="yes"/>
    </contour>
    <contour>
      <point x="232" y="801" type="line"/>
      <point x="232" y="1370" type="line"/>
      <point x="427" y="1370" type="line" smooth="yes"/>
      <point x="544" y="1370"/>
      <point x="649" y="1225"/>
      <point x="649" y="1089" type="qcurve" smooth="yes"/>
      <point x="649" y="953"/>
      <point x="544" y="801"/>
      <point x="427" y="801" type="qcurve" smooth="yes"/>
    </contour>
  </outline>
</glyph>
<glyph name="D" format="1">
  <advance width="954"/>
  <unicode hex="0044"/>
  <outline>
    <contour>
      <point x="130" y="0" type="line"/>
      <point x="390" y="0" type="line" smooth="yes"/>
      <point x="618" y="0"/>
      <point x="867" y="365"/>
      <point x="867" y="689" type="qcurve" smooth="yes"/>
      <point x="867" y="767" type="line" smooth="yes"/>
      <point x="867" y="1092"/>
      <point x="623" y="1456"/>
      <point x="390" y="1456" type="qcurve" smooth="yes"/>
      <point x="130" y="1456" type="line"/>
    </contour>
    <contour>
      <point x="232" y="91" type="line"/>
      <point x="232" y="1365" type="line"/>
      <point x="390" y="1365" type="line" smooth="yes"/>
      <point x="560.0" y="1365"/>
      <point x="762" y="1052.2238805970148"/>
      <point x="762" y="767" type="qcurve" smooth="yes"/>
      <point x="762" y="689" type="line" smooth="yes"/>
      <point x="762" y="405.742951907131"/>
      <point x="572.0" y="91"/>
      <point x="390" y="91" type="qcurve" smooth="yes"/>
    </contour>
  </outline>
</glyph>
<glyph name="F" format="2">
  <advance width="462"/>
  <unicode hex="0046"/>
  <outline>
    <contour>
      <point x="100" y="0" type="line"/>
      <point x="202" y="0" type="line"/>
      <point x="202" y="676" type="line"/>
      <point x="423" y="676" type="line"/>
      <point x="423" y="766" type="line"/>
      <point x="202" y="766" type="line"/>
      <point x="202" y="1365" type="line"/>
      <point x="453" y="1365" type="line"/>
      <point x="453" y="1456" type="line"/>
      <point x="100" y="1456" type="line"/>
    </contour>
  </outline>
</glyph>
<glyph name="G" format="2">
  <advance width="629"/>
  <unicode hex="0047"/>
  <outline>
    <contour>
      <point x="76" y="329" type="line" smooth="yes"/>
      <point x="76" y="148"/>
      <point x="206" y="-19"/>
      <point x="327" y="-19" type="qcurve"/>
      <point x="421" y="-19"/>
      <point x="546" y="81"/>
      <point x="565" y="132" type="qcurve"/>
      <point x="565" y="727" type="line"/>
      <point x="335" y="727" type="line"/>
      <point x="335" y="635" type="line"/>
      <point x="467" y="635" type="line"/>
      <point x="467" y="147" type="line"/>
      <point x="452" y="119"/>
      <point x="391" y="71"/>
      <point x="327" y="71" type="qcurve" smooth="yes"/>
      <point x="261" y="71"/>
      <point x="176" y="209"/>
      <point x="176" y="375" type="qcurve" smooth="yes"/>
      <point x="176" y="1081" type="line" smooth="yes"/>
      <point x="176" y="1247"/>
      <point x="255" y="1385"/>
      <point x="335" y="1385" type="qcurve" smooth="yes"/>
      <point x="412" y="1385"/>
      <point x="461" y="1282"/>
      <point x="461" y="1178" type="qcurve" smooth="yes"/>
      <point x="461" y="1026" type="line"/>
      <point x="565" y="1026" type="line"/>
      <point x="565" y="1221" type="line" smooth="yes"/>
      <point x="565" y="1339"/>
      <point x="454" y="1476"/>
      <point x="335" y="1476" type="qcurve" smooth="yes"/>
      <point x="212" y="1476"/>
      <point x="76" y="1309"/>
      <point x="76" y="1129" type="qcurve" smooth="yes"/>
    </contour>
  </outline>
</glyph>
<glyph name="I" format="2">
  <advance width="301"/>
  <unicode hex="0049"/>
  <outline>
    <contour>
      <point x="100" y="0" type="line"/>
      <point x="201" y="0" type="line"/>
      <point x="201" y="1456" type="line"/>
      <point x="100" y="1456" type="line"/>
    </contour>
  </outline>
</glyph>
<glyph name="J" format="1">
  <advance width="716"/>
  <unicode hex="004A"/>
  <outline>
    <contour>
      <point x="25" y="395" type="line" smooth="yes"/>
      <point x="25" y="184"/>
      <point x="176" y="-20"/>
      <point x="316" y="-20" type="qcurve" smooth="yes"/>
      <point x="470" y="-20"/>
      <point x="605" y="228"/>
      <point x="605" y="450" type="qcurve" smooth="yes"/>
      <point x="605" y="1456" type="line"/>
      <point x="504" y="1456" type="line"/>
      <point x="504" y="460" type="line" smooth="yes"/>
      <point x="504" y="267.9492385786802"/>
      <point x="411.0" y="71.0"/>
      <point x="316" y="71" type="qcurve" smooth="yes"/>
      <point x="220.0" y="71.0"/>
      <point x="127" y="231.32951289398278"/>
      <point x="127" y="415" type="qcurve" smooth="yes"/>
      <point x="127" y="435" type="line"/>
      <point x="25" y="435" type="line"/>
    </contour>
  </outline>
</glyph>
<glyph name="L" format="1">
  <advance width="730"/>
  <unicode hex="004C"/>
  <outline>
    <contour>
      <point x="130" y="0" type="line"/>
      <point x="710" y="0" type="line"/>
      <point x="710" y="91" type="line"/>
      <point x="232" y="91" type="line"/>
      <point x="232" y="1456" type="line"/>
      <point x="130" y="1456" type="line"/>
    </contour>
  </outline>
</glyph>
<glyph name="M" format="1">
  <advance width="1258"/>
  <unicode hex="004D"/>
  <outline>
    <contour>
      <point x="130" y="0" type="line"/>
      <point x="221" y="0" type="line"/>
      <point x="221" y="1141" type="line" smooth="yes"/>
      <point x="221" y="1181"/>
      <point x="220" y="1277"/>
      <point x="218" y="1316" type="qcurve"/>
      <point x="223" y="1316" type="line"/>
      <point x="227" y="1277"/>
      <point x="245" y="1181"/>
      <point x="256" y="1141" type="qcurve" smooth="yes"/>
      <point x="578" y="0" type="line"/>
      <point x="675" y="0" type="line"/>
      <point x="999" y="1141" type="line" smooth="yes"/>
      <point x="1010" y="1180"/>
      <point x="1028" y="1275"/>
      <point x="1033" y="1316" type="qcurve"/>
      <point x="1038" y="1316" type="line"/>
      <point x="1036" y="1277"/>
      <point x="1034" y="1181"/>
      <point x="1034" y="1141" type="qcurve" smooth="yes"/>
      <point x="1034" y="0" type="line"/>
      <point x="1128" y="0" type="line"/>
      <point x="1128" y="1456" type="line"/>
      <point x="995" y="1456" type="line"/>
      <point x="664" y="286" type="line" smooth="yes"/>
      <point x="653" y="247"/>
      <point x="637" y="165"/>
      <point x="631" y="118" type="qcurve"/>
      <point x="627" y="118" type="line"/>
      <point x="622" y="165"/>
      <point x="605" y="247"/>
      <point x="594" y="286" type="qcurve" smooth="yes"/>
      <point x="263" y="1456" type="line"/>
      <point x="130" y="1456" type="line"/>
    </contour>
  </outline>
</glyph>
<glyph name="N" format="2">
  <advance width="623"/>
  <unicode hex="004E"/>
  <outline>
    <contour>
      <point x="100" y="0" type="line"/>
      <point x="193" y="0" type="line"/>
      <point x="193" y="915" type="line" smooth="yes"/>
      <point x="193" y="975"/>
      <point x="191" y="1094"/>
      <point x="189" y="1132" type="qcurve"/>
      <point x="191" y="1132" type="line"/>
      <point x="196" y="1094"/>
      <point x="210" y="1028"/>
      <point x="223" y="964" type="qcurve" smooth="yes"/>
      <point x="426" y="0" type="line"/>
      <point x="523" y="0" type="line"/>
      <point x="523" y="1456" type="line"/>
      <point x="430" y="1456" type="line"/>
      <point x="430" y="591" type="line" smooth="yes"/>
      <point x="430" y="552"/>
      <point x="434" y="387"/>
      <point x="436" y="348" type="qcurve"/>
      <point x="434" y="348" type="line"/>
      <point x="427" y="395"/>
      <point x="398" y="544"/>
      <point x="389" y="586" type="qcurve" smooth="yes"/>
      <point x="196" y="1456" type="line"/>
      <point x="100" y="1456" type="line"/>
    </contour>
  </outline>
</glyph>
<glyph name="P" format="1">
  <advance width="836"/>
  <unicode hex="0050"/>
  <outline>
    <contour>
      <point x="130" y="0" type="line"/>
      <point x="232" y="0" type="line"/>
      <point x="232" y="604" type="line"/>
      <point x="426" y="604" type="line" smooth="yes"/>
      <point x="600" y="604"/>
      <point x="765" y="845"/>
      <point x="765" y="1031" type="qcurve" smooth="yes"/>
      <point x="765" y="1217"/>
      <point x="600" y="1456"/>
      <point x="426" y="1456" type="qcurve" smooth="yes"/>
      <point x="130" y="1456" type="line"/>
    </contour>
    <contour>
      <point x="232" y="696" type="line"/>
      <point x="232" y="1365" type="line"/>
      <point x="426" y="1365" type="line" smooth="yes"/>
      <point x="557.0" y="1365"/>
      <point x="662.0" y="1168.8651026392963"/>
      <point x="662" y="1030" type="qcurve" smooth="yes"/>
      <point x="662.0" y="893.1055718475073"/>
      <point x="557.002908026243" y="696"/>
      <point x="426" y="696" type="qcurve" smooth="yes"/>
    </contour>
  </outline>
</glyph>
<glyph name="Q" format="1">
  <advance width="993"/>
  <unicode hex="0051"/>
  <outline>
    <contour>
      <point x="86" y="689" type="line" smooth="yes"/>
      <point x="86" y="330"/>
      <point x="308" y="-20"/>
      <point x="496" y="-20" type="qcurve" smooth="yes"/>
      <point x="685" y="-20"/>
      <point x="906" y="330"/>
      <point x="906" y="689" type="qcurve" smooth="yes"/>
      <point x="906" y="767" type="line" smooth="yes"/>
      <point x="906" y="1136"/>
      <point x="685" y="1476"/>
      <point x="496" y="1476" type="qcurve" smooth="yes"/>
      <point x="308" y="1476"/>
      <point x="86" y="1136"/>
      <point x="86" y="767" type="qcurve" smooth="yes"/>
    </contour>
    <contour>
      <point x="189" y="689" type="qcurve" smooth="yes"/>
      <point x="189" y="767" type="line" smooth="yes"/>
      <point x="189" y="1102.1093247588424"/>
      <point x="350.0" y="1385.0"/>
      <point x="496" y="1385" type="qcurve" smooth="yes"/>
      <point x="642.0" y="1385.0"/>
      <point x="801" y="1102.1093247588424"/>
      <point x="801" y="767" type="qcurve" smooth="yes"/>
      <point x="801" y="689" type="line" smooth="yes"/>
      <point x="801" y="363.7459807073955"/>
      <point x="642.0" y="71.0"/>
      <point x="496" y="71" type="qcurve" smooth="yes"/>
      <point x="350.0" y="71.0"/>
      <point x="189" y="363.7459807073955"/>
    </contour>
    <contour>
      <point x="880" y="-222" type="line"/>
      <point x="936" y="-151" type="line"/>
      <point x="516" y="268" type="line"/>
      <point x="462" y="198" type="line"/>
    </contour>
  </outline>
</glyph>
<glyph name="S" format="1">
  <advance width="865"/>
  <unicode hex="0053"/>
  <outline>
    <contour>
      <point x="90" y="377" type="line" smooth="yes"/>
      <point x="90" y="180"/>
      <point x="280" y="-20"/>
      <point x="440" y="-20" type="qcurve" smooth="yes"/>
      <point x="599" y="-20"/>
      <point x="785" y="183"/>
      <point x="785" y="349" type="qcurve" smooth="yes"/>
      <point x="785" y="508"/>
      <point x="609" y="708"/>
      <point x="465" y="786" type="qcurve" smooth="yes"/>
      <point x="320" y="864"/>
      <point x="212" y="1005"/>
      <point x="212" y="1124" type="qcurve" smooth="yes"/>
      <point x="212.0" y="1245.3763440860216"/>
      <point x="319.0" y="1387.0"/>
      <point x="438" y="1387" type="qcurve" smooth="yes"/>
      <point x="547.0" y="1387.0"/>
      <point x="663" y="1230.3745928338762"/>
      <point x="663" y="1095" type="qcurve" smooth="yes"/>
      <point x="663" y="1035" type="line"/>
      <point x="765" y="1035" type="line"/>
      <point x="765" y="1095" type="line" smooth="yes"/>
      <point x="765" y="1279"/>
      <point x="585" y="1476"/>
      <point x="438" y="1476" type="qcurve" smooth="yes"/>
      <point x="282" y="1476"/>
      <point x="111" y="1276"/>
      <point x="111" y="1121" type="qcurve" smooth="yes"/>
      <point x="111" y="969"/>
      <point x="291" y="769"/>
      <point x="434" y="692" type="qcurve" smooth="yes"/>
      <point x="577" y="615"/>
      <point x="683" y="469"/>
      <point x="683" y="346" type="qcurve" smooth="yes"/>
      <point x="683.0" y="222.47098976109214"/>
      <point x="558.0" y="69.0"/>
      <point x="440" y="69" type="qcurve" smooth="yes"/>
      <point x="323.0" y="69.0"/>
      <point x="192" y="222.01547987616098"/>
      <point x="192" y="377" type="qcurve" smooth="yes"/>
      <point x="192" y="457" type="line"/>
      <point x="90" y="457" type="line"/>
    </contour>
  </outline>
</glyph>
<glyph name="T" format="1">
  <advance width="834"/>
  <unicode hex="0054"/>
  <outline>
    <contour>
      <point x="24" y="1365" type="line"/>
      <point x="367" y="1365" type="line"/>
      <point x="367" y="0" type="line"/>
      <point x="468" y="0" type="line"/>
      <point x="468" y="1365" type="line"/>
      <point x="810" y="1365" type="line"/>
      <point x="810" y="1456" type="line"/>
      <point x="24" y="1456" type="line"/>
    </contour>
  </outline>
</glyph>
<glyph name="V" format="1">
  <advance width="786"/>
  <unicode hex="0056"/>
  <outline>
    <contour>
      <point x="-10" y="1456" type="line"/>
      <point x="325" y="-9" type="line"/>
      <point x="461" y="-9" type="line"/>
      <point x="796" y="1456" type="line"/>
      <point x="702" y="1456" type="line"/>
      <point x="421" y="187" type="line" smooth="yes"/>
      <point x="412" y="148"/>
      <point x="405" y="109"/>
      <point x="399" y="70" type="qcurve"/>
      <point x="395" y="70" type="line"/>
      <point x="388" y="109"/>
      <point x="381" y="148"/>
      <point x="372" y="187" type="qcurve" smooth="yes"/>
      <point x="91" y="1456" type="line"/>
    </contour>
  </outline>
</glyph>
<glyph name="X" format="1">
  <advance width="733"/>
  <unicode hex="0058"/>
  <outline>
    <contour>
      <point x="-10" y="0" type="line"/>
      <point x="84" y="0" type="line"/>
      <point x="397" y="712" type="line"/>
      <point x="407" y="716" type="line"/>
      <point x="723" y="1456" type="line"/>
      <point x="628" y="1456" type="line"/>
      <point x="338" y="792" type="line"/>
      <point x="327" y="788" type="line"/>
    </contour>
    <contour>
      <point x="10" y="1456" type="line"/>
      <point x="330" y="713" type="line"/>
      <point x="332" y="709" type="line"/>
      <point x="636" y="0" type="line"/>
      <point x="743" y="0" type="line"/>
      <point x="405" y="787" type="line"/>
      <point x="402" y="793" type="line"/>
      <point x="117" y="1456" type="line"/>
    </contour>
  </outline>
</glyph>
<glyph name="asciicircum" format="1">
  <advance width="910"/>
  <unicode hex="005E"/>
  <outline>
    <contour>
      <point x="25" y="720" type="line"/>
      <point x="148" y="720" type="line"/>
      <point x="455" y="1331" type="line"/>
      <point x="762" y="720" type="line"/>
      <point x="885" y="720" type="line"/>
      <point x="502" y="1456" type="line"/>
      <point x="409" y="1456" type="line"/>
    </contour>
  </outline>
</glyph>
<glyph name="grave" format="2">
  <advance width="997"/>
  <unicode hex="0060"/>
  <outline>
    <contour>
      <point x="457" y="1156" type="line"/>
      <point x="546" y="1156" type="line"/>
      <point x="354" y="1456" type="line"/>
      <point x="252" y="1456" type="line"/>
    </contour>
  </outline>
</glyph>
<glyph name="a" format="2">
  <advance width="743"/>
  <unicode hex="0061"/>
  <outline>
    <contour>
      <point x="56" y="252" type="qcurve" smooth="yes"/>
      <point x="56" y="121"/>
      <point x="182" y="-13"/>
      <point x="302" y="-13" type="qcurve" smooth="yes"/>
      <point x="390" y="-13"/>
      <point x="510" y="80"/>
      <point x="534" y="134" type="qcurve"/>
      <point x="540" y="96"/>
      <point x="558" y="24"/>
      <point x="570" y="0" type="qcurve"/>
      <point x="662" y="0" type="line"/>
      <point x="662" y="16" type="line"/>
      <point x="645" y="59"/>
      <point x="630" y="175"/>
      <point x="630" y="240" type="qcurve" smooth="yes"/>
      <point x="630" y="645" type="line" smooth="yes"/>
      <point x="630" y="803"/>
      <point x="494" y="934"/>
      <point x="372" y="934" type="qcurve" smooth="yes"/>
      <point x="244" y="934"/>
      <point x="97" y="790"/>
      <point x="97" y="686" type="qcurve" smooth="yes"/>
      <point x="97" y="649" type="line"/>
      <point x="197" y="649" type="line"/>
      <point x="197" y="673" type="line" smooth="yes"/>
      <point x="197" y="755"/>
      <point x="291" y="847"/>
      <point x="372" y="847" type="qcurve" smooth="yes"/>
      <point x="455" y="847"/>
      <point x="531" y="742"/>
      <point x="531" y="645" type="qcurve" smooth="yes"/>
      <point x="531" y="548" type="line"/>
      <point x="367" y="548" type="line" smooth="yes"/>
      <point x="223" y="548"/>
      <point x="56" y="385"/>
    </contour>
    <contour>
      <point x="155" y="248" type="qcurve" smooth="yes"/>
      <point x="155" y="349"/>
      <point x="265" y="461"/>
      <point x="383" y="461" type="qcurve" smooth="yes"/>
      <point x="531" y="461" type="line"/>
      <point x="531" y="299" type="line"/>
      <point x="531" y="214"/>
      <point x="393" y="74"/>
      <point x="309" y="74" type="qcurve" smooth="yes"/>
      <point x="237" y="74"/>
      <point x="155" y="162"/>
    </contour>
  </outline>
</glyph>
<glyph name="b" format="2">
  <advance width="759"/>
  <unicode hex="0062"/>
  <outline>
    <contour>
      <point x="78" y="0" type="line"/>
      <point x="172" y="0" type="line"/>
      <point x="172" y="110" type="line"/>
      <point x="173" y="110" type="line"/>
      <point x="206" y="52"/>
      <point x="335" y="-20"/>
      <point x="415" y="-20" type="qcurve" smooth="yes"/>
      <point x="554" y="-20"/>
      <point x="703" y="252"/>
      <point x="703" y="452" type="qcurve" smooth="yes"/>
      <point x="703" y="484" type="line" smooth="yes"/>
      <point x="703" y="684"/>
      <point x="554" y="934"/>
      <point x="415" y="934" type="qcurve" smooth="yes"/>
      <point x="335" y="934"/>
      <point x="216" y="867"/>
      <point x="177" y="810" type="qcurve"/>
      <point x="177" y="1458" type="line"/>
      <point x="78" y="1458" type="line"/>
    </contour>
    <contour>
      <point x="177" y="224" type="qcurve"/>
      <point x="177" y="691" type="line"/>
      <point x="202" y="754"/>
      <point x="308" y="844"/>
      <point x="383" y="844" type="qcurve" smooth="yes"/>
      <point x="495" y="844"/>
      <point x="601" y="646"/>
      <point x="601" y="484" type="qcurve" smooth="yes"/>
      <point x="601" y="453" type="line" smooth="yes"/>
      <point x="601" y="290"/>
      <point x="495" y="70"/>
      <point x="395" y="70" type="qcurve" smooth="yes"/>
      <point x="308" y="70"/>
      <point x="205" y="160"/>
    </contour>
  </outline>
</glyph>
<glyph name="c" format="2">
  <advance width="699"/>
  <unicode hex="0063"/>
  <outline>
    <contour>
      <point x="56" y="442" type="line" smooth="yes"/>
      <point x="56" y="227"/>
      <point x="230" y="-20"/>
      <point x="376" y="-20" type="qcurve" smooth="yes"/>
      <point x="524" y="-20"/>
      <point x="664" y="178"/>
      <point x="664" y="314" type="qcurve" smooth="yes"/>
      <point x="664" y="329" type="line"/>
      <point x="567" y="329" type="line"/>
      <point x="567" y="314" type="line" smooth="yes"/>
      <point x="567" y="209.2629482071713"/>
      <point x="480.0" y="69.0"/>
      <point x="374" y="69" type="qcurve" smooth="yes"/>
      <point x="266.0" y="69.0"/>
      <point x="157" y="271.56464379947226"/>
      <point x="157" y="442" type="qcurve" smooth="yes"/>
      <point x="157" y="474" type="line" smooth="yes"/>
      <point x="157" y="656.0928381962865"/>
      <point x="271.0" y="845.0"/>
      <point x="376" y="845" type="qcurve" smooth="yes"/>
      <point x="480.0" y="845.0"/>
      <point x="563" y="715.5186721991702"/>
      <point x="563" y="610" type="qcurve" smooth="yes"/>
      <point x="563" y="595" type="line"/>
      <point x="664" y="595" type="line"/>
      <point x="664" y="610" type="line" smooth="yes"/>
      <point x="664" y="755"/>
      <point x="524" y="934"/>
      <point x="376" y="934" type="qcurve" smooth="yes"/>
      <point x="226" y="934"/>
      <point x="56" y="691"/>
      <point x="56" y="474" type="qcurve" smooth="yes"/>
    </contour>
  </outline>
</glyph>
<glyph name="d" format="2">
  <advance width="759"/>
  <unicode hex="0064"/>
  <outline>
    <contour>
      <point x="56" y="442" type="line" smooth="yes"/>
      <point x="56" y="242"/>
      <point x="211" y="-20"/>
      <point x="352" y="-20" type="qcurve" smooth="yes"/>
      <point x="434" y="-20"/>
      <point x="552" y="60"/>
      <point x="585" y="118" type="qcurve"/>
      <point x="586" y="118" type="line"/>
      <point x="587" y="0" type="line"/>
      <point x="681" y="0" type="line"/>
      <point x="681" y="1458" type="line"/>
      <point x="582" y="1458" type="line"/>
      <point x="582" y="825" type="line"/>
      <point x="550" y="875"/>
      <point x="435" y="934"/>
      <point x="352" y="934" type="qcurve" smooth="yes"/>
      <point x="216" y="934"/>
      <point x="56" y="674"/>
      <point x="56" y="474" type="qcurve" smooth="yes"/>
    </contour>
    <contour>
      <point x="157" y="442" type="qcurve" smooth="yes"/>
      <point x="157" y="474" type="line" smooth="yes"/>
      <point x="157" y="635"/>
      <point x="264" y="844"/>
      <point x="377" y="844" type="qcurve" smooth="yes"/>
      <point x="452" y="844"/>
      <point x="559" y="762"/>
      <point x="582" y="701" type="qcurve"/>
      <point x="582" y="224" type="line"/>
      <point x="558" y="162"/>
      <point x="452" y="70"/>
      <point x="377" y="70" type="qcurve" smooth="yes"/>
      <point x="265" y="70"/>
      <point x="157" y="280"/>
    </contour>
  </outline>
</glyph>
<glyph name="e" format="1">
  <advance width="715.0"/>
  <unicode hex="0065"/>
  <outline>
    <contour>
      <point x="56" y="442" type="line" smooth="yes"/>
      <point x="56" y="233"/>
      <point x="233" y="-20"/>
      <point x="398" y="-20" type="qcurve" smooth="yes"/>
      <point x="491" y="-20"/>
      <point x="628" y="80"/>
      <point x="658" y="141" type="qcurve"/>
      <point x="587" y="205" type="line"/>
      <point x="550" y="138"/>
      <point x="462.07500000000005" y="68.0"/>
      <point x="398" y="68" type="qcurve" smooth="yes"/>
      <point x="272.0" y="68.0"/>
      <point x="149" y="275.4473684210526"/>
      <point x="149" y="442" type="qcurve" smooth="yes"/>
      <point x="149" y="474" type="line" smooth="yes"/>
      <point x="149" y="640.5291005291006"/>
      <point x="263.0" y="846.0"/>
      <point x="372" y="846" type="qcurve" smooth="yes"/>
      <point x="480.0" y="846.0"/>
      <point x="569" y="655.8877551020408"/>
      <point x="569" y="541" type="qcurve"/>
      <point x="569" y="535" type="line"/>
      <point x="100" y="535" type="line"/>
      <point x="100" y="447" type="line"/>
      <point x="665" y="447" type="line"/>
      <point x="665" y="487" type="line" smooth="yes"/>
      <point x="665" y="696.341628959276"/>
      <point x="512.0" y="934.0"/>
      <point x="372" y="934" type="qcurve" smooth="yes"/>
      <point x="230" y="934"/>
      <point x="56" y="681"/>
      <point x="56" y="474" type="qcurve" smooth="yes"/>
    </contour>
  </outline>
</glyph>
<glyph name="f" format="2">
  <advance width="307"/>
  <unicode hex="0066"/>
  <outline>
    <contour>
      <point x="103" y="0" type="line"/>
      <point x="202" y="0" type="line"/>
      <point x="202" y="874" type="line"/>
      <point x="202" y="885" type="line"/>
      <point x="202" y="1190" type="line" smooth="yes"/>
      <point x="202" y="1295"/>
      <point x="254" y="1385"/>
      <point x="301" y="1385" type="qcurve" smooth="yes"/>
      <point x="316" y="1385"/>
      <point x="347" y="1378"/>
      <point x="357" y="1373" type="qcurve"/>
      <point x="379" y="1466" type="line"/>
      <point x="363" y="1471"/>
      <point x="322" y="1478"/>
      <point x="305" y="1478" type="qcurve" smooth="yes"/>
      <point x="211" y="1478"/>
      <point x="103" y="1342"/>
      <point x="103" y="1210" type="qcurve" smooth="yes"/>
    </contour>
    <contour>
      <point x="10" y="824" type="line"/>
      <point x="324" y="824" type="line"/>
      <point x="324" y="914" type="line"/>
      <point x="157" y="914" type="line"/>
      <point x="147" y="914" type="line"/>
      <point x="10" y="914" type="line"/>
    </contour>
  </outline>
</glyph>
<glyph name="g" format="1">
  <advance width="799"/>
  <unicode hex="0067"/>
  <outline>
    <contour>
      <point x="94" y="-321" type="line"/>
      <point x="141" y="-369"/>
      <point x="279" y="-426"/>
      <point x="365" y="-426" type="qcurve" smooth="yes"/>
      <point x="514" y="-426"/>
      <point x="681" y="-199"/>
      <point x="681" y="30" type="qcurve" smooth="yes"/>
      <point x="681" y="914" type="line"/>
      <point x="586" y="914" type="line"/>
      <point x="586" y="807" type="line"/>
      <point x="585" y="807" type="line"/>
      <point x="552" y="864"/>
      <point x="424" y="934"/>
      <point x="350" y="934" type="qcurve" smooth="yes"/>
      <point x="206" y="934"/>
      <point x="56" y="674"/>
      <point x="56" y="474" type="qcurve" smooth="yes"/>
      <point x="56" y="442" type="line" smooth="yes"/>
      <point x="56" y="242"/>
      <point x="206" y="-12"/>
      <point x="342" y="-12" type="qcurve" smooth="yes"/>
      <point x="425" y="-12"/>
      <point x="545" y="57"/>
      <point x="582" y="113" type="qcurve"/>
      <point x="582" y="30" type="line" smooth="yes"/>
      <point x="582" y="-165.67914438502675"/>
      <point x="459.0" y="-339.0"/>
      <point x="359" y="-339" type="qcurve" smooth="yes"/>
      <point x="291" y="-339"/>
      <point x="175" y="-283"/>
      <point x="138" y="-245" type="qcurve"/>
    </contour>
    <contour>
      <point x="157" y="442" type="qcurve" smooth="yes"/>
      <point x="157" y="474" type="line" smooth="yes"/>
      <point x="157" y="634.6648936170213"/>
      <point x="264.0" y="844.0"/>
      <point x="377" y="844" type="qcurve" smooth="yes"/>
      <point x="452" y="844"/>
      <point x="558" y="752"/>
      <point x="582" y="691" type="qcurve"/>
      <point x="582" y="232" type="line"/>
      <point x="559" y="170"/>
      <point x="452" y="78"/>
      <point x="377" y="78" type="qcurve" smooth="yes"/>
      <point x="264.0" y="78.0"/>
      <point x="157" y="280.4324324324324"/>
    </contour>
  </outline>
</glyph>
<glyph name="h" format="2">
  <advance width="701"/>
  <unicode hex="0068"/>
  <outline>
    <contour>
      <point x="78" y="0" type="line"/>
      <point x="177" y="0" type="line"/>
      <point x="177" y="680" type="line"/>
      <point x="210" y="752"/>
      <point x="308" y="846"/>
      <point x="374" y="846" type="qcurve" smooth="yes"/>
      <point x="451" y="846"/>
      <point x="533" y="739"/>
      <point x="533" y="617" type="qcurve" smooth="yes"/>
      <point x="533" y="0" type="line"/>
      <point x="633" y="0" type="line"/>
      <point x="633" y="625" type="line" smooth="yes"/>
      <point x="633" y="792"/>
      <point x="513" y="934"/>
      <point x="409" y="934" type="qcurve" smooth="yes"/>
      <point x="332" y="934"/>
      <point x="213" y="872"/>
      <point x="177" y="801" type="qcurve"/>
      <point x="177" y="1458" type="line"/>
      <point x="78" y="1458" type="line"/>
    </contour>
  </outline>
</glyph>
<glyph name="i" format="2">
  <advance width="347"/>
  <unicode hex="0069"/>
  <outline>
    <contour>
      <point x="124" y="0" type="line"/>
      <point x="223" y="0" type="line"/>
      <point x="223" y="914" type="line"/>
      <point x="124" y="914" type="line"/>
    </contour>
    <contour>
      <point x="103" y="1264" type="qcurve" smooth="yes"/>
      <point x="103" y="1233"/>
      <point x="139" y="1189"/>
      <point x="173" y="1189" type="qcurve" smooth="yes"/>
      <point x="207" y="1189"/>
      <point x="244" y="1233"/>
      <point x="244" y="1264" type="qcurve" smooth="yes"/>
      <point x="244" y="1296"/>
      <point x="208" y="1338"/>
      <point x="174" y="1338" type="qcurve" smooth="yes"/>
      <point x="140" y="1338"/>
      <point x="103" y="1295"/>
    </contour>
  </outline>
</glyph>
<glyph name="j" format="2">
  <advance width="343"/>
  <unicode hex="006A"/>
  <outline>
    <contour>
      <point x="-80" y="-415" type="line"/>
      <point x="-65" y="-422"/>
      <point x="-17" y="-436"/>
      <point x="7" y="-436" type="qcurve" smooth="yes"/>
      <point x="112" y="-436"/>
      <point x="221" y="-270"/>
      <point x="221" y="-90" type="qcurve" smooth="yes"/>
      <point x="221" y="914" type="line"/>
      <point x="122" y="914" type="line"/>
      <point x="122" y="-117" type="line" smooth="yes"/>
      <point x="122" y="-245.44915254237287"/>
      <point x="58.0" y="-348.0"/>
      <point x="1" y="-348" type="qcurve" smooth="yes"/>
      <point x="-18" y="-348"/>
      <point x="-66" y="-335"/>
      <point x="-80" y="-329" type="qcurve"/>
    </contour>
    <contour>
      <point x="101" y="1264" type="qcurve" smooth="yes"/>
      <point x="101" y="1233"/>
      <point x="137" y="1189"/>
      <point x="171" y="1189" type="qcurve" smooth="yes"/>
      <point x="205" y="1189"/>
      <point x="242" y="1233"/>
      <point x="242" y="1264" type="qcurve" smooth="yes"/>
      <point x="242" y="1296"/>
      <point x="206" y="1338"/>
      <point x="172" y="1338" type="qcurve" smooth="yes"/>
      <point x="138" y="1338"/>
      <point x="101" y="1295"/>
    </contour>
  </outline>
</glyph>
<glyph name="k" format="2">
  <advance width="616"/>
  <unicode hex="006B"/>
  <outline>
    <contour>
      <point x="78" y="0" type="line"/>
      <point x="177" y="0" type="line"/>
      <point x="177" y="388" type="line"/>
      <point x="584" y="914" type="line"/>
      <point x="470" y="914" type="line"/>
      <point x="177" y="533" type="line"/>
      <point x="177" y="1458" type="line"/>
      <point x="78" y="1458" type="line"/>
    </contour>
    <contour>
      <point x="519" y="0" type="line"/>
      <point x="629" y="0" type="line"/>
      <point x="294" y="578" type="line"/>
      <point x="236" y="491" type="line"/>
    </contour>
  </outline>
</glyph>
<glyph name="l" format="2">
  <advance width="255"/>
  <unicode hex="006C"/>
  <outline>
    <contour>
      <point x="78" y="0" type="line"/>
      <point x="177" y="0" type="line"/>
      <point x="177" y="1458" type="line"/>
      <point x="78" y="1458" type="line"/>
    </contour>
  </outline>
</glyph>
<glyph name="m" format="1">
  <advance width="1196"/>
  <unicode hex="006D"/>
  <outline>
    <contour>
      <point x="118" y="0" type="line"/>
      <point x="217" y="0" type="line"/>
      <point x="217" y="680" type="line"/>
      <point x="250" y="751"/>
      <point x="341" y="846"/>
      <point x="404" y="846" type="qcurve" smooth="yes"/>
      <point x="475.0" y="846.0"/>
      <point x="552" y="748.4483070477589"/>
      <point x="553" y="627" type="qcurve" smooth="yes"/>
      <point x="553" y="0" type="line"/>
      <point x="653" y="0" type="line"/>
      <point x="653" y="680" type="line"/>
      <point x="686" y="752"/>
      <point x="776" y="846"/>
      <point x="841" y="846" type="qcurve" smooth="yes"/>
      <point x="912.0" y="846.0"/>
      <point x="987" y="749.4071263837275"/>
      <point x="988" y="627" type="qcurve" smooth="yes"/>
      <point x="988" y="0" type="line"/>
      <point x="1088" y="0" type="line"/>
      <point x="1088" y="625" type="line" smooth="yes"/>
      <point x="1088" y="792"/>
      <point x="971" y="934"/>
      <point x="880" y="934" type="qcurve" smooth="yes"/>
      <point x="795" y="934"/>
      <point x="662" y="843"/>
      <point x="635" y="775" type="qcurve"/>
      <point x="634" y="775" type="line"/>
      <point x="619" y="851"/>
      <point x="517" y="934"/>
      <point x="439" y="934" type="qcurve" smooth="yes"/>
      <point x="365" y="934"/>
      <point x="254" y="861"/>
      <point x="213" y="792" type="qcurve"/>
      <point x="212" y="792" type="line"/>
      <point x="212" y="914" type="line"/>
      <point x="118" y="914" type="line"/>
    </contour>
  </outline>
</glyph>
<glyph name="n" format="1">
  <advance width="757"/>
  <unicode hex="006E"/>
  <outline>
    <contour>
      <point x="104" y="0" type="line"/>
      <point x="203" y="0" type="line"/>
      <point x="203" y="680" type="line"/>
      <point x="236" y="752"/>
      <point x="334" y="846"/>
      <point x="400" y="846" type="qcurve" smooth="yes"/>
      <point x="476" y="846"/>
      <point x="560" y="740"/>
      <point x="560" y="617" type="qcurve" smooth="yes"/>
      <point x="560" y="0" type="line"/>
      <point x="659" y="0" type="line"/>
      <point x="659" y="625" type="line" smooth="yes"/>
      <point x="659" y="792"/>
      <point x="539" y="934"/>
      <point x="435" y="934" type="qcurve" smooth="yes"/>
      <point x="358" y="934"/>
      <point x="233" y="866"/>
      <point x="199" y="795" type="qcurve"/>
      <point x="198" y="795" type="line"/>
      <point x="198" y="914" type="line"/>
      <point x="104" y="914" type="line"/>
    </contour>
  </outline>
</glyph>
<glyph name="p" format="2">
  <advance width="759"/>
  <unicode hex="0070"/>
  <outline>
    <contour>
      <point x="78" y="-416" type="line"/>
      <point x="177" y="-416" type="line"/>
      <point x="192" y="106.0" type="line"/>
      <point x="214" y="49.0"/>
      <point x="282.0" y="-19.0"/>
      <point x="328.0" y="-19.0" type="qcurve" smooth="yes"/>
      <point x="407.0" y="-19.0"/>
      <point x="492.0" y="96"/>
      <point x="492.0" y="194" type="qcurve" smooth="yes"/>
      <point x="492.0" y="728" type="line" smooth="yes"/>
      <point x="492.0" y="823"/>
      <point x="407.0" y="935.0"/>
      <point x="328.0" y="935.0" type="qcurve" smooth="yes"/>
      <point x="283.0" y="935.0"/>
      <point x="207" y="857.0"/>
      <point x="190" y="798.0" type="qcurve"/>
      <point x="172" y="797" type="line"/>
      <point x="172" y="914" type="line"/>
      <point x="78" y="914" type="line"/>
    </contour>
    <contour>
      <point x="177.0" y="224.0" type="qcurve"/>
      <point x="177.0" y="691.0" type="line"/>
      <point x="190" y="752.0"/>
      <point x="243.0" y="844.0"/>
      <point x="281.0" y="844.0" type="qcurve" smooth="yes"/>
      <point x="337.0" y="844.0"/>
      <point x="390.0" y="752"/>
      <point x="390.0" y="678" type="qcurve" smooth="yes"/>
      <point x="390.0" y="242" type="line" smooth="yes"/>
      <point x="390.0" y="169"/>
      <point x="337.0" y="70.0"/>
      <point x="281.0" y="70.0" type="qcurve" smooth="yes"/>
      <point x="242.0" y="70.0"/>
      <point x="190" y="162.0"/>
    </contour>
  </outline>
</glyph>
<glyph name="r" format="1">
  <advance width="467"/>
  <unicode hex="0072"/>
  <outline>
    <contour>
      <point x="118" y="0" type="line"/>
      <point x="217" y="0" type="line"/>
      <point x="217" y="685" type="line"/>
      <point x="249" y="755"/>
      <point x="350" y="843"/>
      <point x="400" y="843" type="qcurve" smooth="yes"/>
      <point x="423" y="843"/>
      <point x="463" y="837"/>
      <point x="478" y="833" type="qcurve"/>
      <point x="478" y="924" type="line"/>
      <point x="469" y="928"/>
      <point x="428" y="934"/>
      <point x="413" y="934" type="qcurve" smooth="yes"/>
      <point x="343" y="934"/>
      <point x="245" y="863"/>
      <point x="213" y="806" type="qcurve"/>
      <point x="212" y="806" type="line"/>
      <point x="212" y="914" type="line"/>
      <point x="118" y="914" type="line"/>
    </contour>
  </outline>
</glyph>
<glyph name="s" format="2">
  <advance width="490"/>
  <unicode hex="0073"/>
  <outline>
    <contour>
      <point x="30" y="314" type="line"/>
      <point x="30" y="231" type="line" smooth="yes"/>
      <point x="30" y="105"/>
      <point x="145" y="-10"/>
      <point x="243" y="-10" type="qcurve" smooth="yes"/>
      <point x="351" y="-10"/>
      <point x="460" y="127"/>
      <point x="460" y="249" type="qcurve" smooth="yes"/>
      <point x="460" y="355"/>
      <point x="363" y="471"/>
      <point x="279" y="518" type="qcurve" smooth="yes"/>
      <point x="192" y="567"/>
      <point x="143" y="631"/>
      <point x="143" y="704" type="qcurve" smooth="yes"/>
      <point x="143" y="771"/>
      <point x="194" y="838"/>
      <point x="243" y="838" type="qcurve" smooth="yes"/>
      <point x="299" y="838"/>
      <point x="350" y="776"/>
      <point x="350" y="687" type="qcurve" smooth="yes"/>
      <point x="350" y="617" type="line"/>
      <point x="444" y="617" type="line"/>
      <point x="444" y="687" type="line" smooth="yes"/>
      <point x="444" y="818"/>
      <point x="334" y="924"/>
      <point x="243" y="924" type="qcurve" smooth="yes"/>
      <point x="152" y="924"/>
      <point x="46" y="805"/>
      <point x="46" y="694" type="qcurve" smooth="yes"/>
      <point x="46" y="591"/>
      <point x="129" y="483"/>
      <point x="221" y="431" type="qcurve" smooth="yes"/>
      <point x="307" y="382"/>
      <point x="366" y="313"/>
      <point x="366.0" y="236" type="qcurve" smooth="yes"/>
      <point x="366" y="154"/>
      <point x="307" y="77"/>
      <point x="243" y="77" type="qcurve" smooth="yes"/>
      <point x="179" y="77"/>
      <point x="122" y="157"/>
      <point x="122" y="231" type="qcurve" smooth="yes"/>
      <point x="122" y="314" type="line"/>
    </contour>
  </outline>
</glyph>
<glyph name="t" format="2">
  <advance width="437"/>
  <unicode hex="0074"/>
  <outline>
    <contour>
      <point x="3" y="824" type="line"/>
      <point x="418" y="824" type="line"/>
      <point x="418" y="914" type="line"/>
      <point x="3" y="914" type="line"/>
    </contour>
    <contour>
      <point x="132" y="252" type="line" smooth="yes"/>
      <point x="132" y="96"/>
      <point x="231" y="-20"/>
      <point x="318" y="-20" type="qcurve" smooth="yes"/>
      <point x="344" y="-20"/>
      <point x="386" y="-10"/>
      <point x="400" y="-3" type="qcurve"/>
      <point x="400" y="85" type="line"/>
      <point x="386" y="76"/>
      <point x="352" y="67"/>
      <point x="334" y="67" type="qcurve" smooth="yes"/>
      <point x="280.0" y="67.0"/>
      <point x="231" y="131.5263157894737"/>
      <point x="231" y="252" type="qcurve" smooth="yes"/>
      <point x="231" y="1272" type="line"/>
      <point x="132" y="1272" type="line"/>
      <point x="132" y="885" type="line"/>
      <point x="132" y="874" type="line"/>
    </contour>
  </outline>
</glyph>
<glyph name="u" format="2">
  <advance width="541"/>
  <unicode hex="0075"/>
  <outline>
    <contour>
      <point x="68" y="223" type="line" smooth="yes"/>
      <point x="68" y="108"/>
      <point x="163" y="-10"/>
      <point x="228" y="-10" type="qcurve" smooth="yes"/>
      <point x="289" y="-10"/>
      <point x="347" y="34"/>
      <point x="366" y="65" type="qcurve"/>
      <point x="367" y="65" type="line"/>
      <point x="368" y="0" type="line"/>
      <point x="463" y="0" type="line"/>
      <point x="463" y="914" type="line"/>
      <point x="364" y="914" type="line"/>
      <point x="364" y="154" type="line"/>
      <point x="347" y="120"/>
      <point x="301" y="79"/>
      <point x="259" y="79" type="qcurve" smooth="yes"/>
      <point x="212" y="79"/>
      <point x="167" y="138"/>
      <point x="167" y="220" type="qcurve" smooth="yes"/>
      <point x="167" y="914" type="line"/>
      <point x="68" y="914" type="line"/>
    </contour>
  </outline>
</glyph>
<glyph name="w" format="1">
  <advance width="1074"/>
  <unicode hex="0077"/>
  <outline>
    <contour>
      <point x="5" y="914" type="line"/>
      <point x="220" y="0" type="line"/>
      <point x="334" y="0" type="line"/>
      <point x="519" y="728" type="line" smooth="yes"/>
      <point x="528" y="765"/>
      <point x="534" y="803"/>
      <point x="537" y="840" type="qcurve"/>
      <point x="542" y="840" type="line"/>
      <point x="545" y="803"/>
      <point x="550" y="765"/>
      <point x="559" y="728" type="qcurve" smooth="yes"/>
      <point x="737" y="0" type="line"/>
      <point x="851" y="0" type="line"/>
      <point x="1069" y="914" type="line"/>
      <point x="971" y="914" type="line"/>
      <point x="831" y="276" type="line" smooth="yes"/>
      <point x="818" y="217"/>
      <point x="807" y="159"/>
      <point x="800" y="100" type="qcurve"/>
      <point x="794" y="100" type="line"/>
      <point x="788" y="159"/>
      <point x="777" y="217"/>
      <point x="763" y="276" type="qcurve" smooth="yes"/>
      <point x="607" y="914" type="line"/>
      <point x="476" y="914" type="line"/>
      <point x="314" y="276" type="line" smooth="yes"/>
      <point x="299" y="217"/>
      <point x="290" y="159"/>
      <point x="285" y="100" type="qcurve"/>
      <point x="279" y="100" type="line"/>
      <point x="272" y="159"/>
      <point x="263" y="217"/>
      <point x="250" y="276" type="qcurve" smooth="yes"/>
      <point x="112" y="914" type="line"/>
    </contour>
  </outline>
</glyph>
<glyph name="y" format="2">
  <advance width="696"/>
  <unicode hex="0079"/>
  <guideline x="352" y="157" angle="90.0" identifier="Mk6ziAsWYo"/>
  <outline>
    <contour>
      <point x="30" y="-416" type="line"/>
      <point x="50" y="-425"/>
      <point x="94" y="-436"/>
      <point x="125" y="-436" type="qcurve" smooth="yes"/>
      <point x="210" y="-436"/>
      <point x="301" y="-292"/>
      <point x="351" y="-140" type="qcurve"/>
      <point x="699" y="914" type="line"/>
      <point x="596" y="914" type="line"/>
      <point x="389" y="243" type="line" smooth="yes"/>
      <point x="374" y="195"/>
      <point x="362" y="148"/>
      <point x="353" y="100" type="qcurve"/>
      <point x="348" y="100" type="line"/>
      <point x="338" y="148"/>
      <point x="326" y="195"/>
      <point x="312" y="243" type="qcurve" smooth="yes"/>
      <point x="117" y="914" type="line"/>
      <point x="7" y="914" type="line"/>
      <point x="302" y="-23" type="line"/>
      <point x="280" y="-88" type="line" smooth="yes"/>
      <point x="229" y="-239"/>
      <point x="164" y="-349"/>
      <point x="117" y="-349" type="qcurve" smooth="yes"/>
      <point x="95" y="-349"/>
      <point x="52" y="-338"/>
      <point x="30" y="-328" type="qcurve"/>
    </contour>
  </outline>
</glyph>
<glyph name="z" format="1">
  <advance width="561"/>
  <unicode hex="007A"/>
  <outline>
    <contour>
      <point x="10" y="0" type="line"/>
      <point x="551" y="0" type="line"/>
      <point x="551" y="90" type="line"/>
      <point x="123" y="90" type="line"/>
      <point x="537" y="832" type="line"/>
      <point x="537" y="914" type="line"/>
      <point x="18" y="914" type="line"/>
      <point x="18" y="824" type="line"/>
      <point x="424" y="824" type="line"/>
      <point x="10" y="82" type="line"/>
    </contour>
  </outline>
</glyph>
<glyph name="cent" format="1">
  <advance width="799"/>
  <unicode hex="00A2"/>
  <outline>
    <contour>
      <point x="121" y="520" type="line" smooth="yes"/>
      <point x="121" y="285.5925925925926"/>
      <point x="294.6707818930041" y="-10.0"/>
      <point x="446" y="-10" type="qcurve" smooth="yes"/>
      <point x="585.0934579439253" y="-10.0"/>
      <point x="730" y="219"/>
      <point x="730" y="361" type="qcurve"/>
      <point x="730" y="366" type="line"/>
      <point x="630" y="366" type="line"/>
      <point x="630" y="361" type="line"/>
      <point x="630" y="248.89297658862876"/>
      <point x="541.758064516129" y="78.0"/>
      <point x="446" y="78" type="qcurve" smooth="yes"/>
      <point x="331.1351351351351" y="78.0"/>
      <point x="222" y="333.2269166704182"/>
      <point x="222" y="520" type="qcurve" smooth="yes"/>
      <point x="222" y="552" type="line" smooth="yes"/>
      <point x="222" y="738.7730833295818"/>
      <point x="331.1351351351351" y="994.0"/>
      <point x="446" y="994" type="qcurve" smooth="yes"/>
      <point x="541.758064516129" y="994.0"/>
      <point x="630" y="824.0401337792642"/>
      <point x="630" y="711" type="qcurve" smooth="yes"/>
      <point x="630" y="706" type="line"/>
      <point x="730" y="706" type="line"/>
      <point x="730" y="711" type="line" smooth="yes"/>
      <point x="730" y="853"/>
      <point x="585.0934579439253" y="1082.0"/>
      <point x="445" y="1082" type="qcurve" smooth="yes"/>
      <point x="294.6707818930041" y="1082.0"/>
      <point x="121" y="786.4074074074074"/>
      <point x="121" y="552" type="qcurve" smooth="yes"/>
    </contour>
    <contour>
      <point x="398" y="-256" type="line"/>
      <point x="484" y="-256" type="line"/>
      <point x="484" y="26" type="line"/>
      <point x="485" y="32" type="line"/>
      <point x="485" y="541" type="line"/>
      <point x="399" y="541" type="line"/>
      <point x="399" y="33" type="line"/>
      <point x="398" y="25" type="line"/>
    </contour>
    <contour>
      <point x="399" y="541" type="line"/>
      <point x="485" y="541" type="line"/>
      <point x="485" y="1049" type="line"/>
      <point x="484" y="1057" type="line"/>
      <point x="484" y="1328" type="line"/>
      <point x="398" y="1328" type="line"/>
      <point x="398" y="1056" type="line"/>
      <point x="399" y="1050" type="line"/>
    </contour>
  </outline>
</glyph>
<glyph name="sterling" format="1">
  <advance width="840"/>
  <unicode hex="00A3"/>
  <outline>
    <contour>
      <point x="114" y="0" type="line"/>
      <point x="764" y="0" type="line"/>
      <point x="764" y="89" type="line"/>
      <point x="269" y="89" type="line"/>
      <point x="316" y="135"/>
      <point x="377.0" y="311.6595744680851"/>
      <point x="377" y="450" type="qcurve" smooth="yes"/>
      <point x="377" y="586"/>
      <point x="307" y="926"/>
      <point x="307" y="1053" type="qcurve" smooth="yes"/>
      <point x="307.0" y="1217.1432664756446"/>
      <point x="394.0" y="1387.0"/>
      <point x="475" y="1387" type="qcurve" smooth="yes"/>
      <point x="556.0" y="1387.0"/>
      <point x="650" y="1218.2923976608188"/>
      <point x="650" y="1060" type="qcurve" smooth="yes"/>
      <point x="650" y="1040" type="line"/>
      <point x="752" y="1040" type="line"/>
      <point x="752" y="1060" type="line" smooth="yes"/>
      <point x="752" y="1247"/>
      <point x="608" y="1476"/>
      <point x="476" y="1476" type="qcurve" smooth="yes"/>
      <point x="345" y="1476"/>
      <point x="206" y="1246"/>
      <point x="206" y="1053" type="qcurve" smooth="yes"/>
      <point x="206" y="916"/>
      <point x="277" y="566"/>
      <point x="277" y="430" type="qcurve" smooth="yes"/>
      <point x="277.0" y="298.6750700280112"/>
      <point x="184.92195003227954" y="98.9896560283744"/>
      <point x="114" y="88" type="qcurve"/>
    </contour>
    <contour>
      <point x="97" y="668" type="line"/>
      <point x="710" y="668" type="line"/>
      <point x="710" y="758" type="line"/>
      <point x="97" y="758" type="line"/>
    </contour>
  </outline>
</glyph>
<glyph name="currency" format="1">
  <advance width="1302"/>
  <unicode hex="00A4"/>
  <outline>
    <contour>
      <point x="241" y="610" type="qcurve" smooth="yes"/>
      <point x="241" y="355"/>
      <point x="473" y="0"/>
      <point x="650" y="0" type="qcurve" smooth="yes"/>
      <point x="828" y="0"/>
      <point x="1061" y="355"/>
      <point x="1061" y="610" type="qcurve" smooth="yes"/>
      <point x="1061" y="865"/>
      <point x="828" y="1220"/>
      <point x="650" y="1220" type="qcurve" smooth="yes"/>
      <point x="473" y="1220"/>
      <point x="241" y="865"/>
    </contour>
    <contour>
      <point x="338" y="610" type="qcurve" smooth="yes"/>
      <point x="338.0" y="828.5887850467288"/>
      <point x="513.0" y="1130.0"/>
      <point x="650" y="1130" type="qcurve" smooth="yes"/>
      <point x="788.0" y="1130.0"/>
      <point x="964.0" y="828.5887850467288"/>
      <point x="964" y="610" type="qcurve" smooth="yes"/>
      <point x="964.0" y="391.41121495327104"/>
      <point x="788.0" y="90.0"/>
      <point x="651" y="90" type="qcurve" smooth="yes"/>
      <point x="513.0" y="90.0"/>
      <point x="338.0" y="391.41121495327104"/>
    </contour>
    <contour>
      <point x="212" y="1183" type="line"/>
      <point x="378" y="985" type="line"/>
      <point x="442" y="1044" type="line"/>
      <point x="276" y="1242" type="line"/>
    </contour>
    <contour>
      <point x="859" y="1044" type="line"/>
      <point x="923" y="985" type="line"/>
      <point x="1089" y="1183" type="line"/>
      <point x="1026" y="1242" type="line"/>
    </contour>
    <contour>
      <point x="859" y="176" type="line"/>
      <point x="1026" y="-22" type="line"/>
      <point x="1089" y="37" type="line"/>
      <point x="923" y="235" type="line"/>
    </contour>
    <contour>
      <point x="212" y="37" type="line"/>
      <point x="276" y="-22" type="line"/>
      <point x="442" y="176" type="line"/>
      <point x="378" y="235" type="line"/>
    </contour>
  </outline>
</glyph>
<glyph name="section" format="1">
  <advance width="906.0"/>
  <unicode hex="00A7"/>
  <outline>
    <contour>
      <point x="123" y="554" type="qcurve" smooth="yes"/>
      <point x="123.0" y="426.2076677316294"/>
      <point x="275.90542907848294" y="288.02857912463423"/>
      <point x="426" y="233" type="qcurve" smooth="yes"/>
      <point x="581.8892315460259" y="175.034510774605"/>
      <point x="679.0" y="25.816513761467903"/>
      <point x="679.0" y="-86.0" type="qcurve" smooth="yes"/>
      <point x="679.0" y="-209.00346020761248"/>
      <point x="550.0" y="-358.0"/>
      <point x="443.0" y="-358.0" type="qcurve" smooth="yes"/>
      <point x="337.0" y="-358.0"/>
      <point x="201.0" y="-204.03095975232196"/>
      <point x="201.0" y="-51.0" type="qcurve" smooth="yes"/>
      <point x="201.0" y="-39.0" type="line"/>
      <point x="100.0" y="-39.0" type="line"/>
      <point x="100.0" y="-51.0" type="line" smooth="yes"/>
      <point x="100.0" y="-233.0"/>
      <point x="288.0" y="-446.0"/>
      <point x="443.0" y="-446.0" type="qcurve" smooth="yes"/>
      <point x="598.0" y="-446.0"/>
      <point x="780.0" y="-244.0"/>
      <point x="780.0" y="-87.0" type="qcurve" smooth="yes"/>
      <point x="780.0" y="75.8923076923077"/>
      <point x="631.0772601158394" y="257.9772998628719"/>
      <point x="469.0" y="314.0" type="qcurve" smooth="yes"/>
      <point x="334.12307539824553" y="363.9624515734166"/>
      <point x="225.0" y="473.15748031496065"/>
      <point x="225.0" y="557.0" type="qcurve" smooth="yes"/>
      <point x="225" y="663"/>
      <point x="327" y="781"/>
      <point x="434" y="781" type="qcurve"/>
      <point x="372" y="833" type="line"/>
      <point x="252" y="813"/>
      <point x="123" y="670"/>
    </contour>
    <contour>
      <point x="148" y="1140" type="qcurve" smooth="yes"/>
      <point x="148.0" y="994.4638069705094"/>
      <point x="284.9206799085712" y="813.022834571775"/>
      <point x="452.0" y="756.0" type="qcurve" smooth="yes"/>
      <point x="589.8875574639833" y="706.0333620711258"/>
      <point x="705.0" y="587.7490774907749"/>
      <point x="705.0" y="496.0" type="qcurve" smooth="yes"/>
      <point x="705.0" y="389.0"/>
      <point x="582.0" y="259.0"/>
      <point x="468.0" y="259.0" type="qcurve"/>
      <point x="558" y="207" type="line"/>
      <point x="669" y="236"/>
      <point x="806.0" y="394.0"/>
      <point x="806.0" y="499.0" type="qcurve" smooth="yes"/>
      <point x="806.0" y="635.8727272727272"/>
      <point x="640.0829477309679" y="785.9756311750829"/>
      <point x="495.0" y="837.0" type="qcurve" smooth="yes"/>
      <point x="341.1082320211353" y="891.9674199528215"/>
      <point x="249.0" y="1036.1032258064517"/>
      <point x="249.0" y="1139.0" type="qcurve" smooth="yes"/>
      <point x="249.0" y="1262.5072463768115"/>
      <point x="359.0" y="1398.0"/>
      <point x="461.0" y="1398.0" type="qcurve" smooth="yes"/>
      <point x="564.0" y="1398.0"/>
      <point x="680.0" y="1232.006289308176"/>
      <point x="680.0" y="1096.0" type="qcurve" smooth="yes"/>
      <point x="680.0" y="1085.0" type="line"/>
      <point x="782.0" y="1085.0" type="line"/>
      <point x="782.0" y="1096.0" type="line" smooth="yes"/>
      <point x="782.0" y="1259.0"/>
      <point x="615.0" y="1486.0"/>
      <point x="461.0" y="1486.0" type="qcurve" smooth="yes"/>
      <point x="307.0" y="1486.0"/>
      <point x="148" y="1288"/>
    </contour>
  </outline>
</glyph>
<glyph name="logicalnot" format="1">
  <advance width="1021"/>
  <unicode hex="00AC"/>
  <outline>
    <contour>
      <point x="175" y="652" type="line"/>
      <point x="760" y="652" type="line"/>
      <point x="760" y="428" type="line"/>
      <point x="846" y="428" type="line"/>
      <point x="846" y="734" type="line"/>
      <point x="175" y="734" type="line"/>
    </contour>
  </outline>
</glyph>
<glyph name="acute" format="1">
  <advance width="997"/>
  <unicode hex="00B4"/>
  <outline>
    <contour>
      <point x="450" y="1156" type="line"/>
      <point x="541" y="1156" type="line"/>
      <point x="744" y="1456" type="line"/>
      <point x="641" y="1456" type="line"/>
    </contour>
  </outline>
</glyph>
<glyph name="mu.math" format="1">
  <advance width="836"/>
  <unicode hex="00B5"/>
  <outline>
    <contour>
      <point x="148" y="-416" type="line"/>
      <point x="239" y="-416" type="line"/>
      <point x="239" y="72" type="line"/>
      <point x="261" y="26"/>
      <point x="347" y="-20"/>
      <point x="394" y="-20" type="qcurve" smooth="yes"/>
      <point x="455" y="-20"/>
      <point x="560" y="44"/>
      <point x="595" y="96" type="qcurve"/>
      <point x="598" y="96" type="line"/>
      <point x="596" y="0" type="line"/>
      <point x="688" y="0" type="line"/>
      <point x="688" y="914" type="line"/>
      <point x="589" y="914" type="line"/>
      <point x="589" y="191" type="line"/>
      <point x="553" y="133"/>
      <point x="459" y="69"/>
      <point x="397" y="69" type="qcurve" smooth="yes"/>
      <point x="325.0" y="69.0"/>
      <point x="247" y="145.61946902654864"/>
      <point x="247" y="231" type="qcurve" smooth="yes"/>
      <point x="247" y="914" type="line"/>
      <point x="148" y="914" type="line"/>
    </contour>
  </outline>
</glyph>
<glyph name="periodcentered" format="1">
  <advance width="478"/>
  <unicode hex="00B7"/>
  <outline>
    <contour>
      <point x="160" y="730" type="qcurve" smooth="yes"/>
      <point x="160" y="694"/>
      <point x="201" y="644"/>
      <point x="239" y="644" type="qcurve" smooth="yes"/>
      <point x="277" y="644"/>
      <point x="318" y="694"/>
      <point x="318" y="730" type="qcurve" smooth="yes"/>
      <point x="318" y="766"/>
      <point x="278" y="816"/>
      <point x="240" y="816" type="qcurve" smooth="yes"/>
      <point x="201" y="816"/>
      <point x="160" y="766"/>
    </contour>
  </outline>
</glyph>
<glyph name="ordmasculine" format="1">
  <advance width="648"/>
  <unicode hex="00BA"/>
  <outline>
    <contour>
      <point x="60" y="1027" type="line" smooth="yes"/>
      <point x="60" y="840"/>
      <point x="204" y="603"/>
      <point x="324" y="603" type="qcurve" smooth="yes"/>
      <point x="442" y="603"/>
      <point x="588" y="840"/>
      <point x="588" y="1027" type="qcurve" smooth="yes"/>
      <point x="588" y="1052" type="line" smooth="yes"/>
      <point x="588" y="1239"/>
      <point x="442" y="1476"/>
      <point x="323" y="1476" type="qcurve" smooth="yes"/>
      <point x="204" y="1476"/>
      <point x="60" y="1239"/>
      <point x="60" y="1052" type="qcurve" smooth="yes"/>
    </contour>
    <contour>
      <point x="150" y="1052" type="line" smooth="yes"/>
      <point x="150" y="1196.3241252302025"/>
      <point x="237.0" y="1398.0"/>
      <point x="324" y="1398" type="qcurve" smooth="yes"/>
      <point x="410.0" y="1398.0"/>
      <point x="497" y="1196.3241252302025"/>
      <point x="497" y="1052" type="qcurve" smooth="yes"/>
      <point x="497" y="1027" type="line" smooth="yes"/>
      <point x="497" y="883.620626151013"/>
      <point x="409.0" y="681.0"/>
      <point x="324" y="681" type="qcurve" smooth="yes"/>
      <point x="237.0" y="681.0"/>
      <point x="150" y="883.620626151013"/>
      <point x="150" y="1027" type="qcurve" smooth="yes"/>
    </contour>
  </outline>
</glyph>
<glyph name="guillemetright" format="1">
  <advance width="795"/>
  <unicode hex="00BB"/>
  <outline>
    <contour>
      <point x="160" y="199" type="line"/>
      <point x="428" y="592" type="line"/>
      <point x="428" y="612" type="line"/>
      <point x="160" y="1005" type="line"/>
      <point x="66" y="1005" type="line"/>
      <point x="308" y="602" type="line"/>
      <point x="66" y="199" type="line"/>
    </contour>
    <contour>
      <point x="455" y="199" type="line"/>
      <point x="723" y="592" type="line"/>
      <point x="723" y="612" type="line"/>
      <point x="455" y="1005" type="line"/>
      <point x="361" y="1005" type="line"/>
      <point x="602" y="602" type="line"/>
      <point x="361" y="199" type="line"/>
    </contour>
  </outline>
</glyph>
<glyph name="questiondown" format="1">
  <advance width="807"/>
  <unicode hex="00BF"/>
  <outline>
    <contour>
      <point x="164" y="35" type="qcurve" smooth="yes"/>
      <point x="164" y="-118"/>
      <point x="300" y="-300"/>
      <point x="421" y="-300" type="qcurve" smooth="yes"/>
      <point x="543" y="-300"/>
      <point x="683" y="-110"/>
      <point x="683" y="68" type="qcurve" smooth="yes"/>
      <point x="683" y="90" type="line"/>
      <point x="579" y="90" type="line"/>
      <point x="579" y="68" type="line" smooth="yes"/>
      <point x="579" y="-70.4406779661017"/>
      <point x="497.98564593301444" y="-212.0"/>
      <point x="419" y="-212" type="qcurve" smooth="yes"/>
      <point x="343.0049261083743" y="-212.0"/>
      <point x="269.0" y="-79.13636363636364"/>
      <point x="269" y="35" type="qcurve" smooth="yes"/>
      <point x="269.0" y="148.375"/>
      <point x="310.61463619481475" y="289.84234129921174"/>
      <point x="375" y="375" type="qcurve" smooth="yes"/>
      <point x="447.5684210354992" y="471.7669553437903"/>
      <point x="509" y="638.6270718232045"/>
      <point x="509" y="751" type="qcurve" smooth="yes"/>
      <point x="509" y="761" type="line"/>
      <point x="404" y="761" type="line"/>
      <point x="404" y="751" type="line" smooth="yes"/>
      <point x="404" y="678.186119873817"/>
      <point x="365.96262034319784" y="530.8251362922964"/>
      <point x="301" y="443" type="qcurve" smooth="yes"/>
      <point x="227.1266891136483" y="344.9775872550029"/>
      <point x="164.0" y="181.17380352644835"/>
    </contour>
    <contour>
      <point x="377" y="1112" type="qcurve" smooth="yes"/>
      <point x="377" y="1077"/>
      <point x="418" y="1026"/>
      <point x="456" y="1026" type="qcurve" smooth="yes"/>
      <point x="493" y="1026"/>
      <point x="532" y="1077"/>
      <point x="532" y="1112" type="qcurve" smooth="yes"/>
      <point x="532" y="1147"/>
      <point x="493" y="1198"/>
      <point x="456" y="1198" type="qcurve" smooth="yes"/>
      <point x="418" y="1198"/>
      <point x="377" y="1147"/>
    </contour>
  </outline>
</glyph>
<glyph name="Eth" format="1">
  <advance width="939"/>
  <unicode hex="00D0"/>
  <outline>
    <contour>
      <point x="130" y="0" type="line"/>
      <point x="383" y="0" type="line" smooth="yes"/>
      <point x="611" y="0"/>
      <point x="860" y="365"/>
      <point x="860" y="689" type="qcurve" smooth="yes"/>
      <point x="860" y="767" type="line" smooth="yes"/>
      <point x="860" y="1092"/>
      <point x="616" y="1456"/>
      <point x="383" y="1456" type="qcurve" smooth="yes"/>
      <point x="130" y="1456" type="line"/>
    </contour>
    <contour>
      <point x="232" y="91" type="line"/>
      <point x="232" y="1365" type="line"/>
      <point x="383" y="1365" type="line" smooth="yes"/>
      <point x="552.0" y="1365"/>
      <point x="755" y="1052.2238805970148"/>
      <point x="755" y="767" type="qcurve" smooth="yes"/>
      <point x="755" y="689" type="line" smooth="yes"/>
      <point x="755" y="405.742951907131"/>
      <point x="564.0" y="91"/>
      <point x="383" y="91" type="qcurve" smooth="yes"/>
    </contour>
    <contour>
      <point x="62" y="779" type="line"/>
      <point x="62" y="689" type="line"/>
      <point x="524" y="689" type="line"/>
      <point x="524" y="779" type="line"/>
    </contour>
  </outline>
</glyph>
<glyph name="multiply" format="2">
  <advance width="1170"/>
  <unicode hex="00D7"/>
  <outline>
    <contour>
      <point x="238" y="378" type="line"/>
      <point x="301" y="323" type="line"/>
      <point x="932" y="972" type="line"/>
      <point x="869" y="1027" type="line"/>
    </contour>
    <contour>
      <point x="238" y="970" type="line"/>
      <point x="868" y="323" type="line"/>
      <point x="932" y="380" type="line"/>
      <point x="302" y="1027" type="line"/>
    </contour>
  </outline>
</glyph>
<glyph name="ae" format="1">
  <advance width="1206"/>
  <unicode hex="00E6"/>
  <outline>
    <contour>
      <point x="61" y="239" type="qcurve" smooth="yes"/>
      <point x="61" y="115"/>
      <point x="188" y="-12"/>
      <point x="292" y="-12" type="qcurve" smooth="yes"/>
      <point x="381" y="-12"/>
      <point x="540" y="96"/>
      <point x="578" y="197" type="qcurve"/>
      <point x="606" y="93"/>
      <point x="752" y="-20"/>
      <point x="855" y="-20" type="qcurve" smooth="yes"/>
      <point x="948" y="-20"/>
      <point x="1076" y="54"/>
      <point x="1112" y="106" type="qcurve"/>
      <point x="1036" y="166" type="line"/>
      <point x="1000.4835150800427" y="111.2172808991461"/>
      <point x="915.0" y="68.0"/>
      <point x="855" y="68" type="qcurve" smooth="yes"/>
      <point x="734.0" y="68.0"/>
      <point x="619" y="275.46194225721786"/>
      <point x="619" y="443" type="qcurve" smooth="yes"/>
      <point x="619" y="472" type="line" smooth="yes"/>
      <point x="619" y="639.5263157894738"/>
      <point x="733.0" y="846.0"/>
      <point x="840" y="846" type="qcurve" smooth="yes"/>
      <point x="931.0" y="846.0"/>
      <point x="1015" y="669"/>
      <point x="1015" y="539" type="qcurve"/>
      <point x="1015" y="522" type="line"/>
      <point x="568" y="522" type="line"/>
      <point x="568" y="442" type="line"/>
      <point x="1113" y="442" type="line"/>
      <point x="1113" y="487" type="line" smooth="yes"/>
      <point x="1113" y="710"/>
      <point x="969" y="934"/>
      <point x="840" y="934" type="qcurve" smooth="yes"/>
      <point x="755" y="934"/>
      <point x="621" y="839"/>
      <point x="587" y="738" type="qcurve"/>
      <point x="566" y="846"/>
      <point x="449" y="934"/>
      <point x="362" y="934" type="qcurve" smooth="yes"/>
      <point x="241" y="934"/>
      <point x="115" y="784"/>
      <point x="115" y="668" type="qcurve" smooth="yes"/>
      <point x="115" y="654" type="line"/>
      <point x="210" y="654" type="line"/>
      <point x="210" y="668" type="line" smooth="yes"/>
      <point x="210" y="748.5376344086021"/>
      <point x="279.0" y="848.0"/>
      <point x="359" y="848" type="qcurve" smooth="yes"/>
      <point x="447.0" y="848.0"/>
      <point x="519" y="735"/>
      <point x="519" y="627" type="qcurve" smooth="yes"/>
      <point x="519" y="522" type="line"/>
      <point x="343" y="522" type="line" smooth="yes"/>
      <point x="218.0" y="522"/>
      <point x="61.0" y="369.3021582733813"/>
    </contour>
    <contour>
      <point x="160" y="239" type="qcurve" smooth="yes"/>
      <point x="160.0" y="332.70731707317077"/>
      <point x="261.0" y="443"/>
      <point x="359" y="443" type="qcurve" smooth="yes"/>
      <point x="519" y="443" type="line"/>
      <point x="519" y="290" type="line"/>
      <point x="519" y="203"/>
      <point x="381.0" y="75.0"/>
      <point x="298" y="75" type="qcurve" smooth="yes"/>
      <point x="232.0" y="75.0"/>
      <point x="160.0" y="159.82558139534882"/>
    </contour>
  </outline>
</glyph>
<glyph name="thorn" format="2">
  <advance width="780"/>
  <unicode hex="00FE"/>
  <outline>
    <contour>
      <point x="118" y="-416" type="line"/>
      <point x="217" y="-416" type="line"/>
      <point x="217" y="92" type="line"/>
      <point x="256" y="40"/>
      <point x="369" y="-20"/>
      <point x="434" y="-20" type="qcurve" smooth="yes"/>
      <point x="573" y="-20"/>
      <point x="724" y="234"/>
      <point x="724" y="447" type="qcurve" smooth="yes"/>
      <point x="724" y="479" type="line" smooth="yes"/>
      <point x="724" y="688"/>
      <point x="573" y="934"/>
      <point x="434" y="934" type="qcurve" smooth="yes"/>
      <point x="369" y="934"/>
      <point x="254" y="869"/>
      <point x="217" y="808" type="qcurve"/>
      <point x="217" y="1457" type="line"/>
      <point x="118" y="1457" type="line"/>
    </contour>
    <contour>
      <point x="217" y="240" type="qcurve"/>
      <point x="217" y="674" type="line"/>
      <point x="242" y="741"/>
      <point x="341" y="844"/>
      <point x="413" y="844" type="qcurve" smooth="yes"/>
      <point x="521.0" y="844.0"/>
      <point x="622" y="640.5795148247978"/>
      <point x="622" y="479" type="qcurve" smooth="yes"/>
      <point x="622" y="448" type="line" smooth="yes"/>
      <point x="622" y="285.296875"/>
      <point x="521.0" y="70.0"/>
      <point x="413" y="70" type="qcurve" smooth="yes"/>
      <point x="341" y="70"/>
      <point x="242" y="173"/>
    </contour>
  </outline>
</glyph>
<glyph name="dotlessi" format="1">
  <advance width="347"/>
  <unicode hex="0131"/>
  <outline>
    <contour>
      <point x="124" y="0" type="line"/>
      <point x="223" y="0" type="line"/>
      <point x="223" y="914" type="line"/>
      <point x="124" y="914" type="line"/>
    </contour>
  </outline>
</glyph>
<glyph name="circumflex" format="2">
  <advance width="966"/>
  <unicode hex="02C6"/>
  <outline>
    <contour>
      <point x="224" y="1156" type="line"/>
      <point x="314" y="1156" type="line"/>
      <point x="483" y="1398" type="line"/>
      <point x="652" y="1156" type="line"/>
      <point x="741" y="1156" type="line"/>
      <point x="543" y="1456" type="line"/>
      <point x="423" y="1456" type="line"/>
    </contour>
  </outline>
</glyph>
<glyph name="gravecmb" format="1">
  <unicode hex="0300"/>
  <outline>
    <contour>
      <point x="-41.5" y="1156" type="line"/>
      <point x="47.5" y="1156" type="line"/>
      <point x="-144.5" y="1456" type="line"/>
      <point x="-246.5" y="1456" type="line"/>
    </contour>
  </outline>
</glyph>
<glyph name="acutecmb" format="2">
  <unicode hex="0301"/>
  <outline>
    <contour>
      <point x="-48.5" y="1156" type="line"/>
      <point x="42.5" y="1156" type="line"/>
      <point x="245.5" y="1456" type="line"/>
      <point x="142.5" y="1456" type="line"/>
    </contour>
  </outline>
</glyph>
<glyph name="emdash" format="2">
  <advance width="1276"/>
  <unicode hex="2014"/>
  <outline>
    <contour>
      <point x="80" y="602" type="line"/>
      <point x="1196" y="602" type="line"/>
      <point x="1196" y="679" type="line"/>
      <point x="80" y="679" type="line"/>
    </contour>
  </outline>
</glyph>
<glyph name="quoteright" format="2">
  <advance width="367"/>
  <unicode hex="2019"/>
  <outline>
    <contour>
      <point x="84" y="1182" type="qcurve"/>
      <point x="155" y="1143" type="line"/>
      <point x="198" y="1188"/>
      <point x="247" y="1297"/>
      <point x="247" y="1370" type="qcurve" smooth="yes"/>
      <point x="247" y="1456" type="line"/>
      <point x="140" y="1456" type="line"/>
      <point x="140" y="1370" type="line" smooth="yes"/>
      <point x="140" y="1311"/>
      <point x="112" y="1222"/>
    </contour>
  </outline>
</glyph>
<glyph name="quotesinglbase" format="1">
  <advance width="367"/>
  <unicode hex="201A"/>
  <outline>
    <contour>
      <point x="84" y="-125" type="qcurve"/>
      <point x="155" y="-163" type="line"/>
      <point x="198" y="-118"/>
      <point x="247" y="-10"/>
      <point x="247" y="63" type="qcurve" smooth="yes"/>
      <point x="247" y="149" type="line"/>
      <point x="140" y="149" type="line"/>
      <point x="140" y="63" type="line" smooth="yes"/>
      <point x="140" y="5"/>
      <point x="112" y="-84"/>
    </contour>
  </outline>
</glyph>
<glyph name="quotedblleft" format="2">
  <advance width="672"/>
  <unicode hex="201C"/>
  <outline>
    <contour>
      <point x="120" y="1180" type="line"/>
      <point x="227" y="1180" type="line"/>
      <point x="227" y="1267" type="line" smooth="yes"/>
      <point x="227" y="1325"/>
      <point x="255" y="1414"/>
      <point x="282" y="1455" type="qcurve"/>
      <point x="211" y="1493" type="line"/>
      <point x="167" y="1449"/>
      <point x="120" y="1340"/>
      <point x="120" y="1267" type="qcurve" smooth="yes"/>
    </contour>
    <contour>
      <point x="427" y="1180" type="line"/>
      <point x="532" y="1180" type="line"/>
      <point x="532" y="1267" type="line" smooth="yes"/>
      <point x="532" y="1325"/>
      <point x="561" y="1414"/>
      <point x="590" y="1455" type="qcurve"/>
      <point x="519" y="1493" type="line"/>
      <point x="474" y="1449"/>
      <point x="427" y="1340"/>
      <point x="427" y="1267" type="qcurve" smooth="yes"/>
    </contour>
  </outline>
</glyph>
<glyph name="quotedblright" format="1">
  <advance width="672"/>
  <unicode hex="201D"/>
  <outline>
    <contour>
      <point x="84" y="1182" type="qcurve"/>
      <point x="155" y="1143" type="line"/>
      <point x="198" y="1188"/>
      <point x="247" y="1297"/>
      <point x="247" y="1370" type="qcurve" smooth="yes"/>
      <point x="247" y="1456" type="line"/>
      <point x="140" y="1456" type="line"/>
      <point x="140" y="1370" type="line" smooth="yes"/>
      <point x="140" y="1311"/>
      <point x="112" y="1222"/>
    </contour>
    <contour>
      <point x="391" y="1182" type="qcurve"/>
      <point x="460" y="1143" type="line"/>
      <point x="505" y="1188"/>
      <point x="552" y="1297"/>
      <point x="552" y="1370" type="qcurve" smooth="yes"/>
      <point x="552" y="1456" type="line"/>
      <point x="447" y="1456" type="line"/>
      <point x="447" y="1370" type="line" smooth="yes"/>
      <point x="447" y="1311"/>
      <point x="418" y="1222"/>
    </contour>
  </outline>
</glyph>
<glyph name="quotedblbase" format="1">
  <advance width="672"/>
  <unicode hex="201E"/>
  <outline>
    <contour>
      <point x="84" y="-125" type="qcurve"/>
      <point x="155" y="-163" type="line"/>
      <point x="198" y="-118"/>
      <point x="247" y="-9"/>
      <point x="247" y="63" type="qcurve" smooth="yes"/>
      <point x="247" y="149" type="line"/>
      <point x="140" y="149" type="line"/>
      <point x="140" y="63" type="line" smooth="yes"/>
      <point x="140" y="5"/>
      <point x="112" y="-84"/>
    </contour>
    <contour>
      <point x="391" y="-125" type="qcurve"/>
      <point x="460" y="-163" type="line"/>
      <point x="505" y="-118"/>
      <point x="552" y="-9"/>
      <point x="552" y="63" type="qcurve" smooth="yes"/>
      <point x="552" y="149" type="line"/>
      <point x="447" y="149" type="line"/>
      <point x="447" y="63" type="line" smooth="yes"/>
      <point x="447" y="5"/>
      <point x="418" y="-84"/>
    </contour>
  </outline>
</glyph>
<glyph name="indianrupee" format="1">
  <advance width="876"/>
  <unicode hex="20B9"/>
  <outline>
    <contour>
      <point x="84" y="584" type="line"/>
      <point x="561" y="0" type="line"/>
      <point x="687" y="0" type="line"/>
      <point x="207" y="584" type="line"/>
      <point x="288" y="584" type="line" smooth="yes"/>
      <point x="487" y="584"/>
      <point x="661" y="824"/>
      <point x="661" y="1018" type="qcurve" smooth="yes"/>
      <point x="661" y="1145"/>
      <point x="582.4645061525628" y="1335.3212963084623"/>
      <point x="514" y="1380" type="qcurve"/>
      <point x="804" y="1380" type="line"/>
      <point x="820" y="1456" type="line"/>
      <point x="89" y="1456" type="line"/>
      <point x="73" y="1380" type="line"/>
      <point x="274" y="1380" type="line" smooth="yes"/>
      <point x="434" y="1380"/>
      <point x="561" y="1174"/>
      <point x="561" y="1023" type="qcurve" smooth="yes"/>
      <point x="561" y="872"/>
      <point x="434" y="661"/>
      <point x="274" y="661" type="qcurve" smooth="yes"/>
      <point x="108" y="661" type="line"/>
    </contour>
    <contour>
      <point x="96" y="977" type="line"/>
      <point x="793" y="977" type="line"/>
      <point x="811" y="1054" type="line"/>
      <point x="113" y="1054" type="line"/>
    </contour>
  </outline>
</glyph>
<glyph name="numero" format="1">
  <advance width="1810"/>
  <unicode hex="2116"/>
  <outline>
    <contour>
      <point x="170" y="0" type="line"/>
      <point x="263" y="0" type="line"/>
      <point x="263" y="1126" type="line" smooth="yes"/>
      <point x="263" y="1165"/>
      <point x="263" y="1244"/>
      <point x="262" y="1282" type="qcurve"/>
      <point x="267" y="1282" type="line"/>
      <point x="272" y="1244"/>
      <point x="293" y="1176"/>
      <point x="307" y="1146" type="qcurve" smooth="yes"/>
      <point x="829" y="0" type="line"/>
      <point x="926" y="0" type="line"/>
      <point x="926" y="1456" type="line"/>
      <point x="833" y="1456" type="line"/>
      <point x="833" y="331" type="line" smooth="yes"/>
      <point x="833" y="292"/>
      <point x="831" y="217"/>
      <point x="831" y="178" type="qcurve"/>
      <point x="827" y="178" type="line"/>
      <point x="820" y="217"/>
      <point x="802" y="279"/>
      <point x="787" y="311" type="qcurve" smooth="yes"/>
      <point x="266" y="1456" type="line"/>
      <point x="170" y="1456" type="line"/>
    </contour>
    <contour>
      <point x="1060" y="186" type="line"/>
      <point x="1060" y="263" type="line"/>
      <point x="1689" y="263" type="line"/>
      <point x="1689" y="186" type="line"/>
    </contour>
    <contour>
      <point x="1060" y="964" type="qcurve" smooth="yes"/>
      <point x="1060" y="984" type="line" smooth="yes"/>
      <point x="1060" y="1195"/>
      <point x="1226" y="1476"/>
      <point x="1375" y="1476" type="qcurve" smooth="yes"/>
      <point x="1524" y="1476"/>
      <point x="1690" y="1195"/>
      <point x="1690" y="984" type="qcurve" smooth="yes"/>
      <point x="1690" y="964" type="line" smooth="yes"/>
      <point x="1690" y="753"/>
      <point x="1524" y="472"/>
      <point x="1375" y="472" type="qcurve" smooth="yes"/>
      <point x="1225" y="472"/>
      <point x="1060" y="753"/>
    </contour>
    <contour>
      <point x="1154" y="964" type="line" smooth="yes"/>
      <point x="1154" y="782"/>
      <point x="1266" y="549"/>
      <point x="1375" y="549" type="qcurve" smooth="yes"/>
      <point x="1483" y="549"/>
      <point x="1596" y="782"/>
      <point x="1596" y="964" type="qcurve" smooth="yes"/>
      <point x="1596" y="984" type="line" smooth="yes"/>
      <point x="1596" y="1166"/>
      <point x="1483" y="1399"/>
      <point x="1374" y="1399" type="qcurve" smooth="yes"/>
      <point x="1266" y="1399"/>
      <point x="1154" y="1166"/>
      <point x="1154" y="984" type="qcurve" smooth="yes"/>
    </contour>
  </outline>
</glyph>
<glyph name="trademark" format="1">
  <advance width="1371"/>
  <unicode hex="2122"/>
  <outline>
    <contour>
      <point x="276" y="820" type="line"/>
      <point x="360" y="820" type="line"/>
      <point x="360" y="1387" type="line"/>
      <point x="518" y="1387" type="line"/>
      <point x="518" y="1456" type="line"/>
      <point x="117" y="1456" type="line"/>
      <point x="117" y="1387" type="line"/>
      <point x="276" y="1387" type="line"/>
    </contour>
    <contour>
      <point x="576" y="820" type="line"/>
      <point x="656" y="820" type="line"/>
      <point x="656" y="1260" type="line"/>
      <point x="820" y="820" type="line"/>
      <point x="872" y="820" type="line"/>
      <point x="1035" y="1261" type="line"/>
      <point x="1035" y="820" type="line"/>
      <point x="1115" y="820" type="line"/>
      <point x="1115" y="1456" type="line"/>
      <point x="1019" y="1456" type="line"/>
      <point x="847" y="984" type="line"/>
      <point x="675" y="1456" type="line"/>
      <point x="576" y="1456" type="line"/>
    </contour>
  </outline>
</glyph>
<glyph name="minus" format="1">
  <advance width="1021"/>
  <unicode hex="2212"/>
  <outline>
    <contour>
      <point x="179" y="633" type="line"/>
      <point x="842" y="633" type="line"/>
      <point x="842" y="715" type="line"/>
      <point x="179" y="715" type="line"/>
    </contour>
  </outline>
</glyph>
<glyph name="fl" format="1">
  <advance width="762"/>
  <unicode hex="FB02"/>
  <outline>
    <contour>
      <point x="132" y="0" type="line"/>
      <point x="231" y="0" type="line"/>
      <point x="231" y="874" type="line"/>
      <point x="231" y="885" type="line"/>
      <point x="231" y="1141" type="line" smooth="yes"/>
      <point x="231" y="1276.906882591093"/>
      <point x="309.0" y="1390.0"/>
      <point x="384" y="1390" type="qcurve" smooth="yes"/>
      <point x="445" y="1390"/>
      <point x="549" y="1353"/>
      <point x="588" y="1332" type="qcurve"/>
      <point x="609" y="1418" type="line"/>
      <point x="561" y="1443"/>
      <point x="439" y="1478"/>
      <point x="375" y="1478" type="qcurve" smooth="yes"/>
      <point x="263" y="1478"/>
      <point x="132" y="1306"/>
      <point x="132" y="1141" type="qcurve" smooth="yes"/>
    </contour>
    <contour>
      <point x="-2" y="826" type="line"/>
      <point x="416" y="826" type="line"/>
      <point x="416" y="914" type="line"/>
      <point x="180" y="914" type="line"/>
      <point x="172" y="914" type="line"/>
      <point x="-2" y="914" type="line"/>
    </contour>
    <contour>
      <point x="544" y="0" type="line"/>
      <point x="644" y="0" type="line"/>
      <point x="644" y="1418" type="line"/>
      <point x="544" y="1418" type="line"/>
    </contour>
  </outline>
</glyph>
<glyph name="eight.pnum" format="2">
  <advance width="588"/>
  <outline>
    <contour>
      <point x="34" y="402.0" type="qcurve" smooth="yes"/>
      <point x="34" y="178"/>
      <point x="182" y="-10.0"/>
      <point x="295" y="-10.0" type="qcurve" smooth="yes"/>
      <point x="407" y="-10.0"/>
      <point x="554" y="178"/>
      <point x="554" y="402.0" type="qcurve" smooth="yes"/>
      <point x="554" y="583"/>
      <point x="458" y="746.0"/>
      <point x="393" y="776.0" type="qcurve"/>
      <point x="393" y="780.0" type="line"/>
      <point x="451" y="814.0"/>
      <point x="523" y="959"/>
      <point x="523" y="1116.0" type="qcurve" smooth="yes"/>
      <point x="523" y="1312"/>
      <point x="404" y="1476.0"/>
      <point x="295" y="1476.0" type="qcurve" smooth="yes"/>
      <point x="186" y="1476.0"/>
      <point x="65" y="1322"/>
      <point x="65" y="1116.0" type="qcurve" smooth="yes"/>
      <point x="65" y="967"/>
      <point x="130" y="816.0"/>
      <point x="195" y="777.0" type="qcurve"/>
      <point x="195" y="773.0" type="line"/>
      <point x="131" y="743.0"/>
      <point x="34" y="579"/>
    </contour>
    <contour>
      <point x="138" y="404.0" type="qcurve" smooth="yes"/>
      <point x="138" y="599"/>
      <point x="219" y="730.0"/>
      <point x="294" y="730.0" type="qcurve" smooth="yes"/>
      <point x="369" y="730.0"/>
      <point x="448" y="599"/>
      <point x="448" y="403.0" type="qcurve" smooth="yes"/>
      <point x="448" y="227"/>
      <point x="369" y="79.0"/>
      <point x="294" y="79.0" type="qcurve" smooth="yes"/>
      <point x="219" y="79.0"/>
      <point x="138" y="226"/>
    </contour>
    <contour>
      <point x="172" y="1115.0" type="qcurve" smooth="yes"/>
      <point x="172" y="1280"/>
      <point x="230" y="1387.0"/>
      <point x="296" y="1387.0" type="qcurve" smooth="yes"/>
      <point x="361" y="1387.0"/>
      <point x="420" y="1272"/>
      <point x="420" y="1115.0" type="qcurve" smooth="yes"/>
      <point x="420" y="990"/>
      <point x="356" y="820.0"/>
      <point x="296" y="820.0" type="qcurve" smooth="yes"/>
      <point x="236" y="820.0"/>
      <point x="172" y="990"/>
    </contour>
  </outline>
</glyph>
<glyph name="five.pnum" format="1">
  <advance width="782"/>
  <outline>
    <contour>
      <point x="75" y="370" type="line" smooth="yes"/>
      <point x="75" y="198"/>
      <point x="247" y="-20"/>
      <point x="387" y="-20" type="qcurve" smooth="yes"/>
      <point x="536" y="-20"/>
      <point x="707" y="214"/>
      <point x="707" y="465" type="qcurve" smooth="yes"/>
      <point x="707" y="711"/>
      <point x="548" y="911"/>
      <point x="427" y="911" type="qcurve" smooth="yes"/>
      <point x="357" y="911"/>
      <point x="259" y="869"/>
      <point x="225" y="826" type="qcurve"/>
      <point x="278" y="1366" type="line"/>
      <point x="656" y="1366" type="line"/>
      <point x="656" y="1456" type="line"/>
      <point x="190" y="1456" type="line"/>
      <point x="120" y="717" type="line"/>
      <point x="194" y="698" type="line"/>
      <point x="217" y="748"/>
      <point x="329" y="823"/>
      <point x="411" y="823" type="qcurve" smooth="yes"/>
      <point x="484" y="823"/>
      <point x="603" y="684"/>
      <point x="603" y="465" type="qcurve" smooth="yes"/>
      <point x="603" y="248"/>
      <point x="493" y="71"/>
      <point x="387" y="71" type="qcurve" smooth="yes"/>
      <point x="292" y="71"/>
      <point x="178" y="222"/>
      <point x="178" y="370" type="qcurve" smooth="yes"/>
      <point x="178" y="390" type="line"/>
      <point x="75" y="390" type="line"/>
    </contour>
  </outline>
</glyph>
<glyph name="four.pnum" format="1">
  <advance width="807"/>
  <outline>
    <contour>
      <point x="483" y="0" type="line"/>
      <point x="586" y="0" type="line"/>
      <point x="586" y="1456" type="line"/>
      <point x="511" y="1456" type="line"/>
      <point x="69" y="450" type="line"/>
      <point x="69" y="351" type="line"/>
      <point x="755" y="351" type="line"/>
      <point x="755" y="441" type="line"/>
      <point x="540" y="441" type="line"/>
      <point x="528" y="441" type="line"/>
      <point x="158" y="441" type="line"/>
      <point x="475" y="1172" type="line"/>
      <point x="483" y="1172" type="line"/>
      <point x="483" y="403" type="line"/>
      <point x="483" y="391" type="line"/>
    </contour>
  </outline>
</glyph>
<glyph name="one.pnum" format="2">
  <advance width="388"/>
  <outline>
    <contour>
      <point x="195" y="0" type="line"/>
      <point x="299" y="0" type="line"/>
      <point x="299" y="1476" type="line"/>
      <point x="244" y="1476" type="line"/>
      <point x="19" y="1349" type="line"/>
      <point x="19" y="1243" type="line"/>
      <point x="195" y="1339" type="line"/>
    </contour>
  </outline>
</glyph>
<glyph name="seven.pnum" format="1">
  <advance width="815"/>
  <outline>
    <contour>
      <point x="232" y="0" type="line"/>
      <point x="342" y="0" type="line"/>
      <point x="730" y="1374" type="line"/>
      <point x="730" y="1456" type="line"/>
      <point x="41" y="1456" type="line"/>
      <point x="41" y="1364" type="line"/>
      <point x="618" y="1364" type="line"/>
    </contour>
  </outline>
</glyph>
<glyph name="six.pnum" format="2">
  <advance width="545"/>
  <outline>
    <contour>
      <point x="52" y="614" type="line" smooth="yes"/>
      <point x="52" y="249"/>
      <point x="178" y="-10"/>
      <point x="289" y="-10" type="qcurve" smooth="yes"/>
      <point x="403" y="-10"/>
      <point x="521" y="205"/>
      <point x="521" y="455" type="qcurve" smooth="yes"/>
      <point x="521" y="697"/>
      <point x="417" y="900"/>
      <point x="303" y="900" type="qcurve" smooth="yes"/>
      <point x="197" y="900"/>
      <point x="79" y="664"/>
      <point x="79" y="465" type="qcurve"/>
      <point x="148" y="465" type="line"/>
      <point x="148" y="620"/>
      <point x="208" y="812"/>
      <point x="293" y="812" type="qcurve" smooth="yes"/>
      <point x="367" y="812"/>
      <point x="421" y="666"/>
      <point x="421" y="455" type="qcurve" smooth="yes"/>
      <point x="421" y="229"/>
      <point x="363" y="80"/>
      <point x="294" y="80" type="qcurve" smooth="yes"/>
      <point x="211" y="80"/>
      <point x="147" y="319"/>
      <point x="147" y="614" type="qcurve" smooth="yes"/>
      <point x="147" y="634" type="line" smooth="yes"/>
      <point x="147" y="1006"/>
      <point x="243" y="1385"/>
      <point x="389" y="1385" type="qcurve" smooth="yes"/>
      <point x="440" y="1385" type="line"/>
      <point x="440" y="1476" type="line"/>
      <point x="389" y="1476" type="line" smooth="yes"/>
      <point x="187" y="1476"/>
      <point x="52" y="1038"/>
      <point x="52" y="644" type="qcurve" smooth="yes"/>
    </contour>
  </outline>
</glyph>
